<?xml version="1.0" encoding="UTF-8" standalone="no"?><svg xmlns="http://www.w3.org/2000/svg" xmlns:xlink="http://www.w3.org/1999/xlink" fill="#65aa33" height="67.4" preserveAspectRatio="xMidYMid meet" version="1" viewBox="12.0 16.1 75.7 67.4" width="75.7" zoomAndPan="magnify"><g><g id="change1_1"><path d="M28.41,55.46c-1.01-1.52-3.22-3.3-5.47-3.74c-1.25-0.25-2.39-0.05-3.31,0.58c-2.47,1.67-3.69,4.79-3.34,8.58 c0.2,2.2,0.52,4.53,1.44,6.64c1.04,2.36,2.79,4.16,4.81,4.91c0.78,0.29,1.66,0.45,2.51,0.45c1.77,0,3.47-0.67,4.17-2.16 C32.72,63.31,29.82,57.58,28.41,55.46z M28.33,70.3c-0.77,1.64-3.43,1.95-5.43,1.2c-1.77-0.67-3.32-2.26-4.25-4.38 c-0.87-1.98-1.17-4.21-1.36-6.33c-0.31-3.41,0.75-6.2,2.9-7.66c0.5-0.34,1.08-0.51,1.73-0.51c0.26,0,0.54,0.03,0.83,0.08 c1.96,0.39,3.95,2,4.83,3.31C28.89,58,31.6,63.35,28.33,70.3z" fill="inherit"/><path d="M85.9,47.33c-2.57-1.67-4.79-3.09-7.02-4.51c-2.25-1.43-4.5-2.87-7.1-4.57c-1.12-0.73-2.39-1.56-3.03-2.79 c-0.8-1.53-2.04-6.18-2.07-7.78c-0.03-1.49-6.63-4.19-8.9-4.95c-0.08-0.03-0.17-0.04-0.26-0.02c-0.81,0.16-2.12,1.01-3.74,2.1 c-0.51,0.34-0.96,0.64-1.25,0.81c-2.24,1.28-4.76-0.44-7.43-2.26c-1.37-0.94-2.79-1.91-4.17-2.42c-1.58-0.58-2.68-1.34-3.74-2.07 c-1.36-0.93-2.66-1.82-4.72-2.19c-0.06-0.06-0.13-0.1-0.21-0.12c-1.5-0.42-7.65,1.81-8.64,2.75c-0.43,0.41-0.56,0.82-0.57,1.15 c-1.29,8.41-1.82,15.69-1.57,21.64c0.01,0.27,0.23,0.48,0.5,0.48c0.01,0,0.01,0,0.02,0c-0.92,0.52-1.62,1.42-1.82,2.47 c-0.04,0.19,0.04,0.37,0.19,0.49c-0.73,0.39-1.44,0.77-2.12,1.13c-0.04,0.02-0.07,0.05-0.1,0.08c-0.2,0.09-0.4,0.19-0.58,0.32 c-3.74,2.53-5.58,7.28-5.05,13.04c0.31,3.39,0.79,6.97,2.22,10.21c1.58,3.6,4.24,6.32,7.31,7.47c1.08,0.41,2.22,0.6,3.33,0.6 c2.4,0,4.7-0.92,6.22-2.56c0.68-0.59,1.62-1.35,2.84-2.3c0.07,0.15,0.2,0.27,0.38,0.3c0.19,0.03,0.38,0.04,0.56,0.04 c1.06,0,2.1-0.44,2.84-1.21c0,0,0,0,0,0c1.34-0.94,2.81-1.89,4.23-2.8c1.11-0.71,2.23-1.45,3.32-2.18 c2.54,2.06,10.04,6.83,15.58,10.36c2.65,1.69,4.74,3.02,5.4,3.49c1.84,1.31,3.51,1.97,5,1.97c0.39,0,0.76-0.04,1.13-0.13 c0.53-0.13,0.96-0.35,1.33-0.59c2.96-1.43,12.23-6.83,12.23-8.88c0,0,0,0,0,0c0.22-4.2,0.39-8.12,0.56-12.05 c0.17-3.92,0.34-7.85,0.56-12.04c0,0,0-0.01,0-0.01C87.68,48.64,86.93,47.54,85.9,47.33z M57.61,23.73 c3.99,1.36,7.8,3.44,8.08,3.97c0.04,1.86,1.38,6.7,2.18,8.22c0.76,1.46,2.21,2.4,3.37,3.16c2.6,1.7,4.85,3.13,7.1,4.57 c2.25,1.43,4.5,2.87,7.1,4.57c0.06,0.04,0.13,0.07,0.21,0.08c0.61,0.08,0.99,0.82,0.91,1.4c-0.08,0.58-0.5,1.14-1.12,1.53 c-0.87-0.24-1.65-0.79-2.41-1.34l-3.35-2.44c-0.22-0.16-0.54-0.11-0.7,0.11c-0.16,0.22-0.11,0.54,0.11,0.7l3.35,2.44 c0.55,0.4,1.15,0.82,1.81,1.14c-0.94,0.43-2.31,0.99-3.7,1.4c-0.03-0.06-0.08-0.11-0.14-0.15c-2.11-1.54-3.82-2.57-5.48-3.56 c-1.69-1.01-3.28-1.97-5.12-3.37c-0.22-0.17-0.53-0.13-0.7,0.09c-0.17,0.22-0.13,0.53,0.09,0.7c1.88,1.44,3.5,2.4,5.21,3.43 c1.51,0.9,3.07,1.85,4.92,3.17c-1.32,0.29-2.54,0.35-3.26-0.1c-2-1.31-3.73-2.44-5.27-3.43c-6.12-3.97-8.87-5.76-11.64-8.4 c0,0,0.01,0,0.01,0c0.08,0,0.17-0.02,0.25-0.07c0.85-0.49,1.74-0.95,2.64-1.35c0.1-0.04,0.18-0.12,0.23-0.22l0.31-0.57 c0.13-0.24,0.04-0.55-0.2-0.68c-0.24-0.13-0.55-0.04-0.68,0.2l-0.23,0.43c-0.88,0.4-1.74,0.85-2.57,1.33 c-0.01,0.01-0.02,0.02-0.03,0.03l0.24-1.78c0.81-5.17,0.18-6.72-1.11-7.55l-0.72-0.44c-2.19-1.35-4.56-2.76-6.19-3.28 c1.72-0.95,3.48-2.02,4.95-3.04c0.08-0.05,0.13-0.13,0.17-0.22C56.79,24.09,57.28,23.83,57.61,23.73z M32.62,20.78 c-0.27-0.24-0.58-0.41-0.87-0.58c-0.5-0.28-0.8-0.47-0.89-0.8c-0.04-0.17-0.13-0.57,0.04-0.78c0.27-0.24,1.9-0.81,3.9,0.17 c0.65,0.32,1.14,0.63,1.37,1.09l0.06,0.11c0.12,0.23,0.47,0.92,0.42,1.09C35.69,21.64,33.11,21.21,32.62,20.78z M30.34,20.4 c0.27,0.28,0.61,0.49,0.93,0.67c0.26,0.15,0.5,0.28,0.7,0.45c0.52,0.46,1.92,0.81,3.22,0.81c0.5,0,0.98-0.06,1.4-0.18 c-0.12,0.26-0.3,0.52-0.49,0.63c-0.96,0.57-3.55,0.14-4.03-0.29c-0.27-0.24-0.58-0.41-0.87-0.58c-0.5-0.28-0.8-0.47-0.89-0.8 C30.27,21.01,30.29,20.73,30.34,20.4z M24.31,20.04c0.62-0.59,4.13-1.9,6.24-2.37c-0.18,0.1-0.33,0.2-0.41,0.29c0,0,0,0,0,0 c-0.09,0.11-0.16,0.23-0.21,0.36c0,0-0.01,0-0.01,0.01c-0.4,0.48-0.74,2.49-0.59,3.05c0.2,0.76,0.82,1.1,1.37,1.41 c0.26,0.15,0.5,0.28,0.7,0.45c0.52,0.46,1.92,0.81,3.22,0.81c0.76,0,1.49-0.12,1.98-0.41c0.67-0.4,1.35-1.62,1.03-2.48 c0.02-0.29-0.05-0.61-0.17-0.91c0.87,0.57,1.86,1.15,3.13,1.62c1.26,0.47,2.63,1.4,3.95,2.31c1.87,1.28,3.78,2.58,5.67,2.84 c-0.49,0.26-0.98,0.52-1.45,0.76c-0.09,0.05-0.16,0.12-0.2,0.21c-0.11,0.06-0.23,0.13-0.34,0.21c-0.01-0.01-0.02-0.02-0.03-0.03 c-0.99-0.64-2.33-1.33-3.62-2c-1.03-0.53-2-1.03-2.77-1.5c-0.24-0.14-0.54-0.06-0.69,0.17c-0.14,0.24-0.06,0.54,0.17,0.69 c0.8,0.48,1.78,0.98,2.82,1.52c1.13,0.59,2.28,1.19,3.2,1.75c-0.62,0.44-1.24,0.94-1.82,1.43c-0.03-0.03-0.05-0.07-0.09-0.1 c-2.31-1.62-4.72-3.13-7.18-4.49c-0.24-0.13-0.55-0.05-0.68,0.2c-0.13,0.24-0.05,0.55,0.2,0.68c2.39,1.33,4.75,2.8,6.99,4.37 c-0.57,0.5-1.05,0.95-1.35,1.24c-3.58-1.14-12.27-6.41-13.98-7.61c-0.4-0.28-0.96-0.6-1.61-0.96c-1.45-0.82-3.64-2.05-3.75-2.97 C24.04,20.48,24.05,20.29,24.31,20.04z M23.16,45.17c5.29,1.02,10.39,4.86,12.44,9.41c2.08,4.61,3.08,11.73,0.38,16.5 c-0.98,0.74-1.82,1.39-2.57,1.97c1.62-3.21,2.41-7.34,1.96-10.87c-1.02-7.91-6.1-12.87-10.51-14.86c-1.33-0.6-2.62-0.93-3.8-1.02 C21.75,45.94,22.45,45.56,23.16,45.17z M22.39,76.85c-2.81-1.06-5.27-3.58-6.74-6.94c-1.37-3.11-1.83-6.59-2.14-9.9 c-0.49-5.39,1.19-9.8,4.62-12.12c1.4-0.94,3.76-0.82,6.32,0.34c3.98,1.8,8.97,6.56,9.93,14.08c0.53,4.15-0.81,9.38-3.18,12.45 c-0.12,0.16-0.28,0.29-0.41,0.44c-0.25,0.22-0.46,0.42-0.65,0.6C28.12,77.4,25.1,77.86,22.39,76.85z M35.32,72.84 c0.43-0.33,0.87-0.67,1.36-1.03c0.06-0.04,0.1-0.09,0.13-0.15c0,0,0,0,0,0c2.93-5.08,1.9-12.63-0.29-17.49 c-2.24-4.97-7.63-9-13.39-10.02c-0.18-0.03-0.34,0.04-0.45,0.16c-0.5,0.27-0.98,0.53-1.46,0.79c0.2-0.76,0.76-1.44,1.48-1.76 c0.11-0.05,0.18-0.13,0.23-0.22c0.03,0.01,0.07,0.03,0.1,0.04c2.93,0.52,6.33,1.97,9.14,4c0.02,0.02,0.04,0.04,0.07,0.05 c2.15,1.57,3.95,3.49,4.9,5.59c2.16,4.79,3.83,13.76,0.79,18.72c-0.03,0.05-0.05,0.11-0.06,0.17c-0.08,0.05-0.16,0.11-0.23,0.16 c-0.02,0.01-0.02,0.03-0.04,0.04c-0.01,0.01-0.03,0.02-0.04,0.03C36.99,72.52,36.15,72.85,35.32,72.84z M41.9,69.01 c-0.79,0.51-1.6,1.03-2.39,1.56c0.63-1.53,0.96-3.25,1.06-5.04c0.04,0,0.07-0.01,0.11-0.02l2.13-0.79 c0.83-0.31,1.77-0.65,2.58-1.22c0.23-0.16,0.28-0.47,0.12-0.7s-0.47-0.28-0.7-0.12c-0.7,0.49-1.54,0.8-2.35,1.1l-1.86,0.69 c0.01-0.96-0.05-1.94-0.15-2.9c1-0.9,2.55-1.55,3.92-2.12l0.74-0.31c0.25-0.11,0.37-0.4,0.26-0.66s-0.4-0.37-0.66-0.26l-0.73,0.31 c-1.24,0.52-2.6,1.09-3.68,1.88c-0.18-1.24-0.43-2.44-0.72-3.57l3.98-2.28c0.24-0.14,0.32-0.44,0.19-0.68 c-0.14-0.24-0.44-0.32-0.68-0.19l-3.76,2.15c-0.37-1.26-0.79-2.41-1.21-3.35c0.74-0.34,2.97-1.36,3.21-1.66 c0.17-0.22,0.16-0.57-0.06-0.73c-0.22-0.17-0.5-0.16-0.67,0.06c-0.23,0.18-2.12,1.1-2.92,1.45c-0.97-1.76-2.48-3.36-4.25-4.75 c0.82-0.43,1.61-0.89,2.36-1.36c0.73-0.45,1.41-0.87,2.1-1.22c0.25-0.13,0.34-0.43,0.21-0.67c-0.13-0.25-0.43-0.34-0.67-0.21 c-0.72,0.37-1.42,0.8-2.16,1.26c-0.87,0.54-1.77,1.08-2.73,1.55c-1.23-0.87-2.55-1.63-3.9-2.26c0.49-0.24,0.92-0.4,1.34-0.56 c0.66-0.25,1.35-0.51,2.21-1.04c0.23-0.15,0.31-0.45,0.16-0.69s-0.45-0.31-0.69-0.16c-0.78,0.48-1.39,0.71-2.04,0.96 c-0.62,0.24-1.27,0.49-2.11,0.96c-0.02,0.01-0.02,0.02-0.04,0.03c-1.01-0.41-2.01-0.74-2.99-0.98c0.86-0.51,1.67-0.98,2.44-1.43 c1.51-0.87,2.94-1.7,4.49-2.71c6.55,1.37,11.94,6.53,14.2,10.78c1.82,3.43,2.66,9.32,1.86,13.59c0,0.02-0.01,0.04-0.01,0.07 c-0.27,1.4-0.72,2.62-1.38,3.52C44.74,67.18,43.3,68.11,41.9,69.01z M37.72,37.6c5.69,0.37,12.78,5.35,13.49,11.31 c0.1,0.83,0.2,1.59,0.3,2.31c0.62,4.55,0.93,6.83-2.19,9.8l-0.1,0.09c-0.23,0.21-0.38,0.33-0.61,0.52 c0.51-4.34-0.37-9.68-2.14-13.01c-1.89-3.56-5.88-7.72-10.91-9.99C36.31,38.26,37.05,37.91,37.72,37.6z M72.63,82.39 c-1.44,0.36-3.27-0.23-5.31-1.68c-0.68-0.49-2.78-1.82-5.45-3.52c-5.06-3.22-12.53-7.97-15.25-10.1c0.03-0.02,0.06-0.04,0.08-0.06 c0.03-0.02,0.05-0.05,0.07-0.08c0.01-0.01,0.03-0.02,0.04-0.03c0.01-0.01,0.01-0.02,0.02-0.03c0-0.01,0.01-0.01,0.01-0.02 c0.73-0.99,1.23-2.31,1.54-3.82c0.9-0.69,1.06-0.82,1.49-1.2l0.11-0.1c0,0,0-0.01,0.01-0.01c0,0,0.01,0,0.01-0.01 c3.49-3.32,3.11-6.08,2.49-10.66c-0.1-0.71-0.2-1.47-0.3-2.29c-0.77-6.47-8.45-11.87-14.54-12.2c-0.01,0-0.02,0-0.02,0 c-0.02,0-0.04,0-0.06,0.01c-0.05,0-0.1,0.01-0.15,0.03c0,0-0.01,0-0.01,0c-0.94,0.43-1.99,0.93-3.1,1.48 c-0.95-0.35-1.92-0.65-2.92-0.84c0,0,0,0,0,0c0,0,0,0,0,0c-0.02,0-0.04,0-0.05,0c-0.05,0-0.09-0.01-0.14,0 c-0.05,0.01-0.1,0.03-0.15,0.06c-0.01,0.01-0.02,0.01-0.03,0.01c0,0,0,0,0,0c0,0,0,0,0,0c-1.6,1.05-3.07,1.9-4.62,2.79 c-1.09,0.63-2.23,1.29-3.53,2.08c0,0-0.01,0.01-0.01,0.01c-0.03,0.02-0.06,0.05-0.09,0.08c-0.02,0.02-0.04,0.03-0.05,0.06 c-0.01,0.01-0.01,0.02-0.02,0.04c-0.1-0.04-0.21-0.04-0.32-0.01c0.07-0.09,0.12-0.2,0.11-0.33c-0.08-1.91-0.07-3.99,0.01-6.18 c0.8,0.6,2.05,1.26,3.63,2.08c0.48,0.25,0.94,0.49,1.33,0.7c0.08,0.04,0.16,0.06,0.24,0.06c0.18,0,0.35-0.09,0.44-0.26 c0.13-0.24,0.04-0.55-0.2-0.68c-0.4-0.21-0.86-0.45-1.35-0.71c-1.32-0.68-3.73-1.92-4.04-2.51c0.08-1.64,0.21-3.34,0.38-5.12 c0.23,0.31,0.49,0.6,0.75,0.83c0.31,0.27,0.92,0.63,1.68,1.07c0.63,0.36,1.35,0.79,2.06,1.25c0.08,0.06,0.18,0.08,0.27,0.08 c0.16,0,0.32-0.08,0.42-0.23c0.15-0.23,0.09-0.54-0.14-0.69c-0.72-0.47-1.46-0.9-2.1-1.28c-0.69-0.4-1.29-0.75-1.52-0.96 c-0.7-0.62-1.35-1.62-1.13-2.36c0.03-0.1,0.02-0.2-0.01-0.3c0.18-1.55,0.39-3.15,0.63-4.8c0.84,0.86,2.21,1.64,3.48,2.36 c0.6,0.34,1.16,0.65,1.52,0.91c1.77,1.25,11.07,6.86,14.55,7.84c0.17,0.05,0.36,0,0.48-0.12c1.99-1.94,5.25-4.63,6.24-4.61 c1.38,0.07,4.97,2.28,6.69,3.34l0.71,0.44c0.73,0.48,1.45,1.42,0.65,6.56L57.8,41.4c-0.02,0.16,0.03,0.31,0.14,0.42 c3.03,3.01,5.94,4.9,12.32,9.04c1.53,0.99,3.27,2.12,5.27,3.43c0.19,0.12,0.42,0.21,0.65,0.28c-0.14,0.09-0.24,0.25-0.23,0.43 c0.06,1.8,0.08,4.39,0.06,7.25c-2.18-0.78-4.31-2.32-6.37-3.82c-0.78-0.57-1.55-1.13-2.29-1.63c-0.23-0.15-0.54-0.09-0.69,0.14 c-0.15,0.23-0.09,0.54,0.14,0.69c0.73,0.49,1.49,1.04,2.26,1.6c2.22,1.62,4.51,3.28,6.95,4.07c-0.02,1.82-0.06,3.71-0.12,5.55 c-3.99-2.26-10.9-6.99-14.39-10.08c-0.21-0.18-0.52-0.16-0.71,0.04c-0.18,0.21-0.16,0.52,0.04,0.71 c3.6,3.18,10.76,8.06,14.76,10.31c0.08,0.04,0.16,0.06,0.24,0.06c0.01,0,0.01,0,0.02-0.01c-0.19,5.14-0.53,9.69-1.07,10.76 C74.62,80.98,73.99,82.05,72.63,82.39z M86,61.79c-0.17,3.88-0.34,7.77-0.55,11.9c-0.01,0.03-0.01,0.06,0,0.1 c0,0.01,0,0.03,0,0.04c0,0.02,0.01,0.04,0.01,0.06c0,0.01,0,0.01,0,0.02c-0.18,0.88-4.99,4.37-9.66,6.91 c1.25-3.56,1.31-21.6,1.17-25.85c0-0.09-0.04-0.18-0.09-0.25c0.22,0.03,0.45,0.05,0.68,0.05c0.48,0,0.99-0.06,1.51-0.14v16.23 c0,0.28,0.22,0.5,0.5,0.5s0.5-0.22,0.5-0.5V54.46c0-0.01-0.01-0.03-0.01-0.04c0.7-0.17,1.4-0.39,2.05-0.62l0.18,8.71 c0.01,0.27,0.23,0.49,0.5,0.49c0,0,0.01,0,0.01,0c0.28-0.01,0.5-0.23,0.49-0.51l-0.19-9.06c1.51-0.6,2.62-1.18,2.65-1.2 c0.26-0.14,0.5-0.31,0.71-0.5C86.29,55.18,86.14,58.49,86,61.79z" fill="inherit"/><path d="M55.16,36.56c0.03-0.93,0.06-1.8,0.28-2.6c0.17-0.6-0.3-0.91-3.88-2.54c-0.7-0.32-1.33-0.61-1.67-0.79 c-0.19-0.1-0.42-0.07-0.58,0.08c-0.75,0.71-3.43,4.08-3.41,4.89c0,0.14,0.08,0.32,0.19,0.42c0.88,0.77,2.18,1.44,3.43,2.08 c1.2,0.62,2.44,1.26,3.23,1.94c0.17,0.15,0.53,0.46,0.98,0.46c0.08,0,0.15-0.01,0.23-0.03c0.62-0.16,0.81-0.83,0.88-1.08 C55.1,38.48,55.13,37.51,55.16,36.56z M54.16,36.53c-0.03,0.93-0.06,1.8-0.28,2.6c-0.09,0.32-0.16,0.37-0.15,0.38 c-0.02,0-0.1-0.02-0.32-0.21c-0.88-0.77-2.17-1.44-3.43-2.08c-1.09-0.56-2.22-1.14-3-1.76c0.37-0.73,1.87-2.79,2.79-3.77 c0.36,0.18,0.86,0.4,1.39,0.65c0.98,0.45,2.74,1.25,3.26,1.62C54.21,34.78,54.19,35.67,54.16,36.53z" fill="inherit"/><path d="M62.84,31.6c0.16,0,0.31-0.07,0.41-0.21c0.43-0.6,1.04-1.08,1.72-1.36c0.25-0.11,0.38-0.4,0.27-0.65 c-0.11-0.25-0.4-0.38-0.65-0.27c-0.86,0.36-1.6,0.94-2.15,1.7c-0.16,0.22-0.11,0.54,0.11,0.7C62.64,31.57,62.74,31.6,62.84,31.6z" fill="inherit"/><path d="M59.81,33.08c0.09,0,0.18-0.02,0.26-0.07l1.35-0.82c0.24-0.14,0.31-0.45,0.17-0.69c-0.14-0.24-0.45-0.31-0.69-0.17 l-1.35,0.82c-0.24,0.14-0.31,0.45-0.17,0.69C59.47,33,59.64,33.08,59.81,33.08z" fill="inherit"/><path d="M83.27,67.79v-3.86c0-0.28-0.22-0.5-0.5-0.5s-0.5,0.22-0.5,0.5v3.86c0,0.28,0.22,0.5,0.5,0.5S83.27,68.07,83.27,67.79z" fill="inherit"/><path d="M82.93,71.31c-0.28,0-0.5,0.22-0.5,0.5v2.57c0,0.28,0.22,0.5,0.5,0.5s0.5-0.22,0.5-0.5v-2.57 C83.43,71.54,83.21,71.31,82.93,71.31z" fill="inherit"/><path d="M79.72,72.92c-0.28,0-0.5,0.22-0.5,0.5v1.77c0,0.28,0.22,0.5,0.5,0.5s0.5-0.22,0.5-0.5v-1.77 C80.22,73.14,79.99,72.92,79.72,72.92z" fill="inherit"/><path d="M30.67,33.06c-0.54-0.31-1.04-0.58-1.35-0.78c-0.23-0.14-0.54-0.07-0.69,0.16c-0.15,0.23-0.07,0.54,0.16,0.69 c0.32,0.2,0.83,0.49,1.39,0.8c0.95,0.53,2.02,1.13,2.59,1.55c0.09,0.06,0.19,0.09,0.29,0.09c0.16,0,0.31-0.07,0.41-0.21 c0.16-0.22,0.11-0.54-0.11-0.7C32.74,34.22,31.64,33.6,30.67,33.06z" fill="inherit"/><path d="M64.25,38.15c0.1,0.13,0.25,0.2,0.4,0.2c0.1,0,0.21-0.03,0.3-0.1l1.89-1.4c0.22-0.16,0.27-0.48,0.1-0.7 c-0.16-0.22-0.48-0.27-0.7-0.1l-1.89,1.39C64.13,37.61,64.09,37.93,64.25,38.15z" fill="inherit"/><path d="M73.4,44.74c1.85,1.17,3.95,2.49,4.12,2.61c0.09,0.06,0.19,0.1,0.29,0.1c0.15,0,0.31-0.07,0.4-0.2 c0.16-0.22,0.12-0.54-0.11-0.7c-0.18-0.13-1.7-1.09-4.18-2.65c-1.85-1.17-3.95-2.49-4.12-2.61c-0.22-0.16-0.54-0.12-0.7,0.11 c-0.16,0.22-0.12,0.54,0.11,0.7C69.4,42.21,70.92,43.17,73.4,44.74z" fill="inherit"/><path d="M65.15,43.24c-0.11,0.25,0,0.54,0.24,0.66c0.16,0.08,0.86,0.62,1.33,0.98c0.9,0.7,1.32,1.01,1.55,1.11 c0.06,0.03,0.13,0.04,0.19,0.04c0.19,0,0.37-0.11,0.45-0.29c0.11-0.25,0-0.54-0.24-0.66c-0.16-0.08-0.87-0.62-1.34-0.99 c-0.9-0.69-1.32-1.01-1.54-1.1C65.55,42.88,65.26,42.99,65.15,43.24z" fill="inherit"/><path d="M34.7,39.81c-0.1,0.07-0.42,0.24-0.75,0.41c-0.56,0.3-0.8,0.43-0.91,0.52c-0.21,0.17-0.24,0.47-0.07,0.68 c0.1,0.13,0.25,0.19,0.4,0.19c0.1,0,0.21-0.03,0.3-0.09c0.1-0.07,0.43-0.24,0.76-0.41c0.57-0.3,0.79-0.42,0.9-0.51 c0.21-0.17,0.24-0.47,0.07-0.68C35.23,39.7,34.92,39.66,34.7,39.81z" fill="inherit"/><path d="M43.08,48.88l-1.36,0.7c-0.25,0.13-0.34,0.43-0.21,0.67c0.09,0.17,0.26,0.27,0.44,0.27c0.08,0,0.16-0.02,0.23-0.06 l1.36-0.7c0.25-0.13,0.34-0.43,0.21-0.67C43.63,48.85,43.33,48.75,43.08,48.88z" fill="inherit"/><path d="M46.29,52.69c0-0.28-0.22-0.5-0.5-0.5c-0.24,0-0.49,0.13-0.95,0.38c-0.16,0.09-0.43,0.23-0.53,0.26 c-0.25,0.03-0.45,0.24-0.45,0.5c0,0.28,0.22,0.5,0.5,0.5c0.24,0,0.49-0.13,0.95-0.38c0.17-0.09,0.45-0.24,0.48-0.26 C46.07,53.19,46.29,52.96,46.29,52.69z" fill="inherit"/><path d="M22.43,56.79c-0.14-0.24-0.45-0.31-0.69-0.18c-0.24,0.14-0.32,0.45-0.18,0.69c1.1,1.86,2.1,3.82,2.95,5.8 c0.08,0.19,0.27,0.3,0.46,0.3c0.07,0,0.13-0.01,0.2-0.04c0.25-0.11,0.37-0.4,0.26-0.66C24.56,60.68,23.55,58.69,22.43,56.79z" fill="inherit"/><path d="M22.27,60.59c-0.16-0.22-0.47-0.28-0.7-0.11c-0.22,0.16-0.28,0.47-0.11,0.7c0.4,0.56,0.7,1.18,0.88,1.85 c0.06,0.22,0.26,0.37,0.48,0.37c0.04,0,0.09,0,0.13-0.02c0.27-0.07,0.43-0.34,0.35-0.61C23.09,61.98,22.75,61.25,22.27,60.59z" fill="inherit"/><path d="M20.71,64.39c-0.09-0.26-0.38-0.39-0.64-0.3c-0.26,0.09-0.39,0.38-0.3,0.64l0.54,1.48c0.07,0.2,0.27,0.33,0.47,0.33 c0.06,0,0.11-0.01,0.17-0.03c0.26-0.09,0.39-0.38,0.3-0.64L20.71,64.39z" fill="inherit"/><path d="M50.63,34.09c-0.23,0.16-0.28,0.47-0.13,0.7l0.78,1.14c0.1,0.14,0.25,0.22,0.41,0.22c0.1,0,0.2-0.03,0.28-0.09 c0.23-0.16,0.29-0.47,0.13-0.7l-0.79-1.14C51.17,33.99,50.85,33.93,50.63,34.09z" fill="inherit"/><path d="M65.01,56.9c0.08,0.04,0.16,0.06,0.24,0.06c0.17,0,0.34-0.09,0.44-0.25c0.14-0.24,0.05-0.54-0.19-0.68 c-0.36-0.2-2.79-1.86-4.93-3.33c-2.37-1.62-4.61-3.15-5.01-3.37c-0.24-0.14-0.55-0.05-0.68,0.19c-0.14,0.24-0.05,0.54,0.19,0.68 c0.36,0.2,2.79,1.86,4.93,3.33C62.37,55.15,64.61,56.68,65.01,56.9z" fill="inherit"/><path d="M60.15,57.58c-0.19-0.11-1.01-0.61-1.82-1.1c-0.82-0.51-1.65-1.01-1.84-1.12c-0.24-0.13-0.55-0.04-0.68,0.2 c-0.13,0.24-0.04,0.55,0.2,0.68c0.19,0.11,1,0.6,1.8,1.1c0.83,0.51,1.66,1.02,1.86,1.13c0.08,0.04,0.16,0.06,0.24,0.06 c0.18,0,0.35-0.09,0.44-0.26C60.49,58.02,60.4,57.71,60.15,57.58z" fill="inherit"/></g></g></svg>