<?xml version="1.0" encoding="UTF-8" standalone="no"?><!-- Generator: Adobe Illustrator 23.0.2, SVG Export Plug-In . SVG Version: 6.00 Build 0)  --><svg xmlns="http://www.w3.org/2000/svg" enable-background="new 0 0 94.8 57.91" fill="#000000" id="Layer_1" version="1.1" viewBox="0 0 94.8 57.91" x="0px" xml:space="preserve" y="0px">
<g fill="#7ed957" id="change1_1">
	<path d="m45.03 56.11c5.96-2.83 8.46-7.91 8.45-14.39-0.01-4.32-1.36-8.16-3.84-11.66-0.66-0.93-1.29-1.88-2.09-3.06 1.61-0.6 2.82-1.17 4.09-1.5 5.46-1.4 10.93-2.76 16.4-4.08 2.22-0.53 4.48-0.89 6.7-1.41 1.59-0.38 2.58-1.42 2.7-3.1 0.13-1.86-0.81-3.13-2.51-3.67-0.98-0.31-2.14-0.49-3.13-0.29-9.74 1.96-19.54 3.72-28.73 7.68-2.15 0.92-3.93 0.86-6.1-0.02-9.72-3.95-19.94-5.28-30.36-5.23-1.46 0.01-2.97 0.22-4.36 0.63-1.56 0.47-2.39 1.72-2.23 3.41 0.17 1.7 1.2 2.63 2.87 2.85 0.53 0.07 1.07-0.02 1.61 0.03 5.74 0.52 11.49 0.89 17.2 1.64 3.01 0.4 5.94 1.46 9.45 2.36-2.33 2.21-4.1 3.67-5.61 5.35-6.33 7.08-5.66 16.39 1.73 22.35 5.41 4.35 11.5 5.09 17.76 2.11zm-15.97-12.49c-0.55-2.54 0-4.93 1.87-6.67 2.14-1.99 4.57-3.67 6.91-5.45 1.12-0.85 2.2-0.72 3.24 0.25 2.96 2.76 4.88 6.01 4.92 8.77-0.02 6.04-2.67 9.1-7.12 9.63-4.44 0.52-8.94-2.44-9.82-6.53z" fill="inherit"/>
	<path d="m89.89 20.72c0.94-0.76 1.98-1.41 2.83-2.26 2.91-2.9 2.77-6.55-0.52-9.02-1.58-1.19-3.48-2.04-5.34-2.75-5.77-2.19-11.61-4.2-17.4-6.36-1.59-0.6-2.94-0.41-4.03 0.8-1.23 1.36-1.28 3.02-0.29 4.46 0.65 0.94 1.69 1.71 2.71 2.26 1.29 0.7 2.72 1.13 4.12 1.62 4.42 1.56 8.85 3.09 13.97 4.87-5.62 4.62-10.66 8.8-15.75 12.92-1.56 1.26-2.11 2.96-1.27 4.57 0.83 1.58 2.71 2.46 4.47 1.71 1.32-0.56 2.47-1.57 3.61-2.48 4.32-3.43 8.6-6.9 12.89-10.34z" fill="inherit"/>
</g>
</svg>