<?xml version="1.0" encoding="UTF-8" standalone="no"?><svg xmlns="http://www.w3.org/2000/svg" xmlns:xlink="http://www.w3.org/1999/xlink" fill="#000000" height="191.1" preserveAspectRatio="xMidYMid meet" version="1" viewBox="-0.1 -0.1 248.2 191.1" width="248.2" zoomAndPan="magnify"><g data-name="Layer 2"><g><g id="change1_1"><path d="M12.92,136.64c14.72-17.2,31.81,3.73,48.38-5.69a43.93,43.93,0,0,0,12.9-11.89C86,103,77.54,82.54,92.22,67a27.67,27.67,0,0,1,16.19-8.58c11.42-1.81,19.5,8.41,29.12,9.25,9,.79,21.29-11.07,26.7-19.56C177.83,26.7,175.44.54,202.07,0A223.25,223.25,0,0,1,227.19,1.1c14.74,1.72,17.55,1.1,19.23,2.41s.6,3.65-1.49,3.91a13.79,13.79,0,0,1-2.63.21c-55.08-4.6-53-6-65.4,25.9-3.9,10-7.78,18.88-16.11,27.21-4.57,4.57-10.43,9.06-16.54,11.12-10.78,3.64-18-3.32-27.17-7.17-7.62-3.19-16.17.3-21.51,6.37-14.73,16.75-.84,39.31-25.52,60.06-22.61,19-39.78-6-52.89,8.57-5.38,6-10.34,16.41-11.43,29-.81,9.36.19,22.29-3,20.54C1,188.26.08,184.1,0,182-.06,180.54,2.3,149,12.92,136.64Z" fill="#fff6f4"/></g></g></g></svg>