<?xml version="1.0" encoding="UTF-8" standalone="no"?><!-- Generator: Adobe Illustrator 23.0.3, SVG Export Plug-In . SVG Version: 6.00 Build 0)  --><svg xmlns="http://www.w3.org/2000/svg" enable-background="new 0 0 258 137.77" fill="#000000" id="Layer_1" version="1.1" viewBox="0 0 258 137.77" x="0px" xml:space="preserve" y="0px">
<g fill="#65aa33" id="change1_1">
	<path d="m69.82 70.1c-1.56-0.25-3.19 0.16-4.38-1.31-0.58-0.72-1.58-0.68-2.44-0.16-1.45 0.88-2.79 0.57-4.03-0.44-1.06-0.87-2.17-1.69-3.08-2.7-2.08-2.28-2.43-5.07-1.76-7.95 0.58-2.48 3.75-4.17 6.3-3.47 1.88 0.52 3.69 1.24 5.55 1.84 0.44 0.14 0.94 0.32 1.36 0.23 2.07-0.43 4.18-0.64 6.2-1.45 1.97-0.79 4.12-1.11 6.17-1.73 2.28-0.69 4.18-1.94 5.76-3.79 1-1.17 2.33-2.07 3.53-3.06 0.45-0.37 1.04-0.58 1.43-1 1.92-2.07 3.82-4.16 5.66-6.31 0.76-0.89 1.26-1.97 2.56-2.27 0.27-0.06 0.45-0.56 0.64-0.88 0.9-1.51 2.19-2.72 3.93-2.66 1.04 0.04 2.34 0.05 3.23 0.63 1.23 0.8 2.11 2.08 2.41 3.57 0.55 2.74 0.37 5.36-0.93 7.97-1.49 2.99-3.37 5.62-5.5 8.18-1.7 2.03-3.55 3.81-5.59 5.45-0.91 0.73-1.7 1.59-2.57 2.36-2.77 2.48-6.13 3.98-9.37 5.69-0.25 0.13-0.51 0.37-0.77 0.37-1.33-0.02-2.42 0.93-3.57 1.05-1.31 0.14-2.4 0.71-3.6 1.01-2.37 0.61-4.8 0.63-7.14 0.83z" fill="inherit"/>
	<path d="m2.95 107.39c-0.13-3.09 1.25-5.68 2.67-8.26 0.47-0.85 1.16-1.65 1.38-2.57 0.45-1.89 1.65-3 3.23-3.94 0.99-0.59 1.8-1.5 2.78-2.12 1.09-0.7 1.76-2.26 3.46-1.8 1.21-0.67 2.46-1.05 3.88-1.11 1.53-0.07 3.03-0.51 4.55-0.76 0.68-0.11 1.36-0.19 2.04-0.22 3.1-0.13 6.17 0.49 9.28 0.27 0.45-0.03 0.93 0.27 1.38 0.47 2.4 1.07 4.81 2.13 7.19 3.24 3.07 1.43 6.17 2.8 9.16 4.37s5.11 4.04 6.5 7.12c0.28 0.62 0.47 1.31 0.88 1.82 1.59 1.97 0.81 4.13 0.36 6.13-0.32 1.39-1.97 1.87-3.22 2.18-0.6 0.15-1.17 0.24-1.77 0.5-0.67 0.28-1.56 0.32-2.27 0.13-1.97-0.52-3.85-1.26-5.43-2.66-1.74-1.53-3.28-3.4-5.45-4.32-2.65-1.13-4.84-3.17-7.81-3.67-1.22-0.2-2.33-0.97-3.51-1.45-2.84-1.15-5.91-1.02-8.87-1.49-0.98-0.16-2.15 0.09-3 0.93-0.27 0.27-0.63 0.53-0.98 0.6-2.02 0.4-3.35 1.8-4.69 3.18-1.29 1.32-2.99 2.12-4.15 3.65-0.92 1.2-2.24 2.09-3.38 3.11-0.85 0.75-1.77 0.69-2.73 0.23-0.77-0.37-1.23-0.97-1.35-1.8-0.11-0.58-0.1-1.17-0.13-1.76z" fill="inherit"/>
	<path d="m192.54 107.08c-1.72 0.08-3.29-0.28-4.92-0.75-1.45-0.42-3.06-0.29-4.6-0.42-0.58-0.05-1.2-0.04-1.72-0.25-4.14-1.68-8.43-3.12-11.88-6.13-0.31-0.27-0.57-0.76-0.6-1.17-0.04-0.46-0.08-0.7-0.6-0.74-1.94-0.16-2.24-1.67-2.38-3.13-0.13-1.39 0.15-2.69 1.54-3.54 1.55-0.96 3.07-0.79 4.71-0.32 2.72 0.78 5.46 1.46 8.2 2.18 1.99 0.52 3.98 0.83 6.06 0.87 1.53 0.03 3.1 0.44 4.56 0.92 1.18 0.39 2.31 0.41 3.43 0.13 1.79-0.45 3.63-0.87 5.29-1.64 3.97-1.84 7.93-3.75 11.14-6.85 0.14-0.14 0.35-0.21 0.46-0.36 1.32-1.94 3.18-3.36 4.84-4.97 0.56-0.54 1.15-1.06 1.65-1.65 1.68-2.02 4.16-2.24 6.4-2.31 1.81-0.06 3.5 1.24 4.39 2.95 1.01 1.96 1.29 3.89-0.15 6.04-2.12 3.15-4.76 5.83-7.16 8.73-0.54 0.65-1.39 1.06-2.15 1.5-1.57 0.9-3.03 1.89-4.43 3.08-2.35 2-5.04 3.58-7.78 5.03-0.34 0.18-0.74 0.27-1.12 0.35-2.66 0.56-5.31 1.15-7.98 1.66-1.73 0.32-3.47 0.53-5.2 0.79zm-23.9-14.24c-0.09-0.15-0.15-0.37-0.27-0.41-0.13-0.04-0.32 0.09-0.48 0.15 0.08 0.14 0.14 0.38 0.25 0.4 0.14 0.03 0.33-0.09 0.5-0.14z" fill="inherit"/>
	<path d="m139.48 83.24c0.22 2.92-1.35 5.07-3.08 7.09-1.78 2.07-3.69 4.05-5.63 5.97-1.31 1.29-2.77 2.43-4.16 3.64-0.22 0.19-0.39 0.5-0.64 0.58-3.76 1.21-7.2 3.5-11.34 3.45-2.5 1.03-4.98-0.19-7.48-0.11-0.69 0.02-1.26-0.09-2.02 0.14-1.16 0.35-2.53 0.18-3.77-0.02-2.7-0.45-5.38-1.05-8.06-1.64-0.55-0.12-1.08-0.43-1.55-0.76-2.56-1.78-5.07-3.63-7.65-5.37-1.43-0.96-1.79-2.51-2.4-3.91-0.3-0.69-0.34-1.52-0.41-2.3-0.15-1.65 0.87-3.12 2.45-3.53 2.24-0.58 4.5-0.53 6.63 0.33 1.7 0.69 3.33 1.58 4.9 2.53 0.71 0.43 1.36 0.61 2.17 0.66 1.45 0.09 2.89 0.43 4.34 0.49 3.22 0.13 6.48 0.17 9.47-1.25 1.05-0.5 2.35 0.48 3.16-0.73 1.14 0.04 2.03-0.56 2.97-1.09 0.33-0.19 0.94-0.41 1.1-0.27 1.69 1.49 1.91-0.18 2.83-1.03 1.76-1.63 3.69-3.13 5.91-4.19 0.77-0.37 1.47-0.92 2.13-1.48 2.46-2.1 6.06-2.34 8.67-0.48 1.14 0.81 1.6 1.94 1.46 3.28zm-48 6.01c-0.46-0.38-0.68-0.71-0.97-0.77-0.55-0.13-0.94 0.26-0.92 0.76 0.01 0.27 0.44 0.75 0.64 0.73 0.36-0.03 0.7-0.37 1.25-0.72zm0.02 8.13c-0.47-0.28-0.8-0.64-1.04-0.59-0.3 0.07-0.63 0.43-0.74 0.74-0.14 0.41 0.54 0.96 0.94 0.75 0.29-0.14 0.47-0.48 0.84-0.9z" fill="inherit"/>
	<path d="m167.33 60.71c-2.14 0.47-3.84-0.89-5.61-1.84-2.32-1.25-4.78-2.05-7.29-2.72-1.51-0.4-3.04-0.72-4.58-1.03-0.47-0.09-0.97-0.07-1.45-0.05-0.78 0.02-1.56 0.17-2.33 0.1-4.48-0.36-8.89-0.56-13.37 0.5-4.07 0.96-8.86 2.48-11.73 4.78-2.51 2.01-4.92 4.16-7.36 6.25-0.22 0.19-0.44 0.39-0.65 0.6-0.73 0.75-1.54 1.24-2.6 0.67s-1.51-1.48-1.47-2.67c0.09-2.61 0.98-4.98 2.34-7.14 1.23-1.97 2.66-3.82 4.05-5.68 0.4-0.54 0.96-0.98 1.51-1.39 2.34-1.76 4.58-3.64 7.46-4.55 1.19-0.38 2.2-1.32 3.4-1.68 1.94-0.59 3.96-0.95 5.96-1.31 0.37-0.07 0.99 0.25 1.21 0.57 0.23 0.36 0.07 1.06 0.74 1 0.27-0.02 0.47-0.54 0.73-0.8 1.71-1.73 2.02-1.81 4.28-1.66 3.5 0.23 7.01 0.44 10.52 0.6 0.95 0.04 1.93-0.1 2.87-0.26 0.81-0.14 1.31-0.04 1.43 0.91 0.06 0.48 0.52 0.53 0.92 0.32 2.01-1.07 3.94-0.39 5.86 0.26 0.73 0.25 1.45 0.59 2.1 1.01 1.48 0.94 3.03 1.72 4.59 2.52 1.88 0.97 3.48 2.37 4.55 4.34 1.21 2.23 1.1 4.3-0.28 6.34-1.3 1.93-3.2 2.41-5.4 2.09-0.1-0.01-0.19-0.03-0.4-0.08zm-51.35-5.2c-0.05-0.15-0.09-0.31-0.17-0.44-0.02-0.03-0.22-0.01-0.23 0.01-0.03 0.15-0.03 0.31-0.04 0.47 0.14-0.01 0.29-0.02 0.44-0.04z" fill="inherit"/>
	<path d="m116.02 137.77c-1.95-0.25-3.93-0.64-5.92-0.97-3.03-0.51-5.76-1.71-8.6-2.73-3.06-1.1-5.17-3.03-6.19-6.12-0.09-0.28-0.16-0.58-0.33-0.81-0.97-1.26-0.51-2.38 0.31-3.47 0.84-1.12 1.46-1.28 2.75-0.6 1.46 0.78 2.89 1.64 4.35 2.43 0.42 0.23 0.88 0.41 1.35 0.5 2.39 0.46 4.77 1.07 7.18 1.26 1.47 0.12 3-0.19 4.52-0.14 1.26 0.04 2.45-0.15 3.63-0.77 1.45-0.77 3.03-1.32 4.57-1.92 2.95-1.14 5.36-3.06 7.66-5.18 0.84-0.78 2.04-1.18 2.85-1.99 1.78-1.76 3.96-3.01 5.75-4.75 1.68-1.64 3.63-2.94 5.78-3.93 1.17-0.54 2.41-0.82 3.7-0.61 2.06 0.32 3.57 1.97 3.47 4.06-0.08 1.73-0.33 3.41-1.36 4.98-1.78 2.71-3.62 5.29-6.37 7.12-0.55 0.37-1.06 0.89-1.4 1.46-1.09 1.82-3.13 2.58-4.46 4.11-3.43 0.51-5.53 3.51-8.64 4.63-2.06 0.75-3.99 1.96-6.33 1.67-2.04 1.37-4.47 1.11-6.72 1.61-0.5 0.12-1 0.11-1.55 0.16z" fill="inherit"/>
	<path d="m24.17 57.81c-2.56-0.2-4.47-0.36-6.41 0.11-0.65 0.16-1.47-0.35-2.21-0.54-0.73-0.19-1.5-0.59-2.2-0.5-2.91 0.36-5.34-0.75-7.69-2.23-1.07-0.67-2.13-1.4-3.26-1.96-1.15-0.57-1.74-1.49-2.14-2.63-0.67-1.9 0.02-3.65 1.89-4.24 0.99-0.31 2.1-0.32 3.15-0.32 0.96 0 1.91 0.25 2.87 0.33 2.2 0.18 4.43 0.61 6.6 0.41 2.77-0.25 5.69-0.06 8.3-0.97 3.28-1.14 6.54-2.47 9.24-4.85 1.81-1.59 3.68-3.18 5.73-4.42 1.45-0.88 3.21-1.42 5.02-1.26 2.64 0.23 3.79 1.31 4.32 3.95 0.41 2.06 0.25 4.11-0.37 6.09-0.37 1.17-0.76 2.47-2.09 3.04-1.44 2.36-3.78 3.68-6.01 5.11-0.24 0.16-0.42 0.45-0.68 0.55-3.01 1.11-5.75 2.9-8.88 3.66-1.87 0.46-3.85 0.51-5.18 0.67z" fill="inherit"/>
	<path d="m193.65 17.75c-0.17 1.4-0.45 2.69-1.99 3.31-0.8 0.32-1.49 0.94-2.3 1.21-1.87 0.63-3.44-0.33-4.94-1.24-2.01-1.23-3.55-2.96-4.77-4.94-0.97-1.59-2.24-2.57-4.03-3.14-1.66-0.52-3.23-1.37-4.79-2.17-1.71-0.88-3.48-1.18-5.37-0.92-2.88 0.38-5.74 0.88-8.64 1.17-2.56 0.25-5.1 1.24-7.27 2.84-1.5 1.1-3.04 2.14-4.49 3.3-0.91 0.72-1.68 1.61-2.53 2.41s-1.64 1.7-2.59 2.36c-1.44 1-3.08 0.2-3.16-1.54-0.04-0.95 0.11-1.99 0.48-2.85 0.92-2.13 1.95-4.23 3.09-6.25 0.46-0.82 1.26-1.48 2-2.1 0.64-0.54 1.57-0.66 1.88-1.69 0.29-0.96 1.12-1.59 2.01-2.04 1.1-0.55 2.02-1.37 3.02-2.01 1.33-0.86 3.11-1.12 4.73-1.41 2.67-0.48 5.38-0.79 8.07-1.17 0.39-0.05 0.82 0.02 1.16-0.13 3.94-1.69 7.62-0.1 11.33 0.92 0.62 0.17 1.18 0.65 1.72 1.06 1.46 1.1 2.82 1.65 4.72 2.17 1.01 0.27 2.07 0.7 2.86 1.36 2.48 2.05 4.93 4.15 7.21 6.41 1.36 1.34 2.5 2.98 2.59 5.08z" fill="inherit"/>
	<path d="m108.8 14.91c0.47 0.69 0.13 1.32-0.51 1.29-2.12-0.09-4.21-0.18-6.25-1.1-2.73-1.23-5.67-1.97-8.52-2.92-0.27-0.09-0.57-0.2-0.85-0.18-3.1 0.21-6.19 0.4-9.28 0.69-0.84 0.08-1.67 0.44-2.48 0.74-0.64 0.23-1.22 0.66-1.88 0.82-3.69 0.89-6.67 3.03-9.73 5.14-3.02 2.07-5.24 4.93-7.97 7.26-0.73 0.63-1.46 1.27-2.27 1.79-0.77 0.49-1.47 0.26-1.98-0.5-0.63-0.96-0.73-2.04-0.53-3.11 0.51-2.82 1.55-5.43 3.56-7.54 1.07-1.12 2.15-2.15 2.81-3.62 0.38-0.84 1.19-1.54 1.92-2.17 1.17-1.02 2.56-1.81 3.64-2.91 1.43-1.45 3.12-2.39 5-2.92 2.61-0.74 5.03-2.11 7.83-2.25 0.93-0.05 1.83-0.6 2.74-0.9 2.62-0.86 5.3-1.68 8.04-1.04 1.61 0.37 3.21 0.44 4.81 0.66 1.28 0.18 2.72 0.03 3.82 0.53 2.88 1.31 6.15 1.86 8.59 4.07 0.79 0.71 1.46 1.55 2.17 2.35 1.1 1.23 1.17 2.56 0.56 4.06-0.73 1.79-1 1.99-3.33 1.83 0.09-0.35 0.22-0.69 0.26-1.05 0.01-0.12-0.18-0.27-0.28-0.41-0.16 0.18-0.48 0.4-0.44 0.52 0.11 0.31 0.36 0.58 0.55 0.87z" fill="inherit"/>
	<path d="m55.63 136.45c-2.13-0.3-4.25-0.6-6.36-0.89-0.48-0.07-0.98-0.24-1.44-0.18-1.61 0.21-3.1-0.28-4.59-0.72-3.09-0.92-6.12-2.01-8.99-3.48-0.43-0.22-0.92-0.41-1.25-0.74-1.21-1.18-2.62-1.93-4.21-2.49-0.68-0.24-1.24-0.91-1.78-1.46-0.72-0.73-1.01-1.45-0.57-2.61 0.49-1.3 1.28-2 2.51-2.1 1.14-0.09 2.33 0.03 3.46 0.25 0.7 0.14 1.31 0.79 2.01 0.93 0.72 0.15 1.53-0.16 2.26-0.03 1.33 0.23 2.62 0.74 3.96 0.94 1.33 0.2 2.62 0.58 4.01 0.66 2.62 0.16 5.25 0.31 7.87 0.51 1.11 0.08 2.14 0.03 3.13-0.3 1.87-0.63 3.73-0.98 5.73-0.77 1.04 0.11 2.17-0.07 3.18-0.38 2.43-0.74 4.8-1.66 7.21-2.47 1.01-0.34 2.04-0.73 3.09-0.85 1.38-0.16 2.3 0.66 2.32 2.04 0.02 1.45 0.06 2.94-0.81 4.25-0.43 0.65-0.71 1.39-1.1 2.07-1.82 3.23-4.52 5.28-8.2 5.97-1.7 0.32-3.39 0.69-5.1 0.96-2.11 0.33-4.23 0.59-6.34 0.89z" fill="inherit"/>
	<path d="m251.49 54.24c-1.09-0.43-2.46-0.75-3.58-1.46-2.34-1.49-5-2.19-7.55-3.04-1.97-0.66-4.22-0.49-6.34-0.64-0.36-0.02-0.73 0.25-1.1 0.33-1.14 0.23-2.29 0.63-3.42 0.58-1.52-0.06-3.01 0.16-4.28 0.8-2.82 1.42-5.92 1.93-8.81 3.1-1 0.4-1.98 0.75-2.8 1.52-0.71 0.66-1.53 1.2-2.65 0.86-0.22-0.07-0.78 0.31-0.86 0.58-0.52 1.79-2.23 2.38-3.42 3.47-0.68 0.62-1.28 0.45-2.05-0.23-1.83-1.59-1.93-2.94-0.81-5.11 1.1-2.14 2.72-3.76 4.5-5.27 1.48-1.26 2.99-2.47 4.51-3.68 0.3-0.24 0.67-0.56 1-0.55 1.31 0.05 2.24-0.74 3.3-1.28 1.12-0.57 2.33-0.99 3.5-1.45 1.9-0.75 3.82-1.31 5.92-1.41 2.23-0.1 4.45-0.56 6.64-1.01 2.13-0.43 4.22-0.56 6.38-0.21 5.1 0.82 10.12 1.74 14.77 4.24 2.03 1.09 2.93 2.69 3.55 4.63 0.39 1.23-0.12 2.33-1.03 3.16-1.46 1.29-3.36 1.48-5.37 2.07zm2.99-5.04l-0.2 0.04 0.15 0.08 0.05-0.12z" fill="inherit"/>
</g>
</svg>