<?xml version="1.0" encoding="UTF-8" standalone="no"?><svg xmlns="http://www.w3.org/2000/svg" xmlns:xlink="http://www.w3.org/1999/xlink" fill="#000000" height="77.2" preserveAspectRatio="xMidYMid meet" version="1" viewBox="-0.1 0.1 198.5 77.2" width="198.5" zoomAndPan="magnify"><g id="change1_1"><path d="M0.3,77.2C0,77.1-0.1,76.8,0,76.6c0.6-1.3,1.2-2.6,1.8-3.9S3,70,3.5,68.7l0,0c0.8-1.8,1.6-3.7,2.4-5.6 c0.8-2,1.7-4.1,2.6-6.1c0.4-0.9,0.8-1.8,1.2-2.7c0.2-0.5,0.4-0.9,0.6-1.4s0.5-1.1,0.8-1.6c0.4-0.9,0.9-1.8,1.4-2.7s1-1.7,1.5-2.5 s1.2-1.8,1.8-2.7s1.2-1.7,1.8-2.5c1.2-1.6,2.4-3.2,3.6-4.8c0.7-0.8,1.4-1.7,2.1-2.5s1.3-1.5,2-2.3c0.2-0.2,0.3-0.4,0.5-0.5l0.6-0.5 l0.5-0.4c0.2-0.2,0.4-0.4,0.6-0.5l0.8-0.5c0.2-0.1,0.4-0.3,0.6-0.4l0.5-0.3c0.2-0.1,0.5-0.3,0.7-0.4c0.4-0.2,0.8-0.5,1.2-0.7 l0.8-0.4c0.3-0.1,0.5-0.2,0.8-0.4l0.5-0.2l0.8-0.3c0.9-0.4,1.9-0.7,2.9-0.9c0.6-0.1,1.3-0.2,1.9-0.2c0.5,0,0.9,0,1.4,0.1l0.9,0.1 c0.3,0,0.5,0.1,0.8,0.1c0.5,0.1,0.9,0.2,1.3,0.3l0.9,0.2l0.9,0.2c0.4,0.1,0.8,0.2,1.2,0.4c0.2,0.1,0.5,0.2,0.8,0.2l0.7,0.2l0.6,0.2 l0.8,0.4l0.5,0.2c0.2,0.1,0.5,0.2,0.8,0.4c0.4,0.2,0.8,0.5,1.2,0.7l0.7,0.5l0.2,0.2l0.5,0.4c0.4,0.3,0.7,0.6,1,0.9 c0.1,0.1,0.2,0.1,0.2,0.2l0.4,0.4c0.2,0.1,0.3,0.3,0.5,0.5L56,32l0.2,0.2l0.3,0.4c0.1,0.1,0.2,0.3,0.3,0.4s0.4,0.5,0.5,0.8l0.5,0.8 c0.1,0.2,0.2,0.3,0.3,0.5s0.2,0.4,0.3,0.6s0.3,0.5,0.4,0.8l0.4,0.8c0.1,0.2,0.2,0.5,0.3,0.7c0.2,0.4,0.4,0.9,0.5,1.3 c0.1,0.2,0.2,0.5,0.3,0.8l0.2,0.5c0.1,0.3,0.2,0.5,0.2,0.8s0.2,0.6,0.3,0.9s0.2,0.8,0.3,1.2c0.1,0.3,0.1,0.5,0.2,0.8 s0.1,0.5,0.2,0.7c0.2,1,0.4,2,0.6,3s0.3,2.1,0.5,3.2s0.3,2,0.4,3c0.2,1.5,0.3,3,0.4,4.6s0.2,3,0.3,4.5c0,0.4,0,0.7,0,1.1 s0,0.8,0,1.2c0,0.8,0,1.6-0.1,2.4s-0.1,1.6-0.2,2.4s-0.2,1.7-0.2,2.6c0.9-1.7,1.8-3.3,2.8-5s2-3.6,2.9-5.4s2-3.8,3.2-5.6l0.9-1.4 c0.3-0.5,0.6-0.9,0.9-1.4c0.6-0.8,1.1-1.6,1.7-2.3l1.8-2.5c0.6-0.9,1.2-1.8,1.9-2.6s1.3-1.6,2-2.3l2.1-2.3c0.7-0.7,1.4-1.5,2-2.2 s1.5-1.7,2.3-2.6c1.3-1.5,2.7-3.1,4-4.6c0.7-0.8,1.4-1.5,2.2-2.3s1.5-1.5,2.3-2.3c1.5-1.5,3.1-2.9,4.7-4.3c0.4-0.3,0.8-0.6,1.1-1 l0.7-0.6l0.6-0.5l0.6-0.5c0.2-0.1,0.4-0.3,0.6-0.4l0.7-0.5c0.3-0.2,0.6-0.4,0.8-0.5c0.9-0.6,1.8-1.1,2.7-1.7l2.6-1.5l1.1-0.6 l1.6-0.9c0.3-0.2,0.6-0.3,0.9-0.4l0.9-0.4c0.6-0.2,1.2-0.5,1.8-0.7c0.5-0.2,1.1-0.3,1.6-0.4c0.6-0.1,1.2-0.1,1.8-0.1 c0.6,0,1.2,0.1,1.7,0.2c0.4,0.1,0.7,0.2,1.1,0.3l0.7,0.2c0.3,0.1,0.6,0.2,0.8,0.3l0.8,0.3l0.5,0.3c0.2,0.1,0.4,0.2,0.6,0.3l0.4,0.3 c0.1,0.1,0.2,0.1,0.3,0.2l0.7,0.4c0.2,0.1,0.3,0.2,0.5,0.4s0.3,0.2,0.4,0.3l0.7,0.6l0.3,0.2l0.4,0.4l0.4,0.5c0.4,0.4,0.7,0.7,1,1.1 c0.1,0.2,0.3,0.4,0.4,0.6l0.4,0.7l0.1,0.2l0.2,0.4c0.1,0.2,0.2,0.5,0.4,0.7c0.2,0.4,0.4,0.9,0.5,1.3s0.4,1,0.5,1.6 c0.6,1.9,1,3.8,1.3,5.8c0.2,1,0.3,2,0.4,3c0.1,0.5,0.1,1,0.1,1.6s0.1,1,0.1,1.5c0.1,2.2,0.2,4.3,0.2,6.4c0,1,0,2,0.1,3s0.1,2,0.2,3 s0.1,1.9,0.2,2.9s0.2,1.9,0.3,2.8s0.2,1.8,0.3,2.7c0,0.3,0,0.5,0.1,0.8s0,0.5,0,0.7s0,0.4,0,0.6v0.9c0,0.5,0,0.9,0,1.4v0.5l-0.1,1 c0,0.2,0,0.3,0,0.5c0,0.3-0.1,0.6-0.1,0.9s-0.1,0.9-0.2,1.3c-0.1,0.9-0.3,1.7-0.4,2.6c-0.1,0.7-0.2,1.4-0.4,2.1 c0.1-0.4,0.3-0.8,0.5-1.2c0.4-0.9,0.8-1.7,1.1-2.6c0.9-1.9,1.7-3.8,2.6-5.7c0.4-1,0.9-1.9,1.3-2.8s0.9-2,1.4-2.9c1-2,1.9-4,2.9-6 c0.9-1.9,1.7-3.8,2.6-5.6c0.4-1,0.9-1.9,1.4-2.9s1-1.9,1.5-2.9c1-1.8,2-3.5,3-5.3s2.2-3.8,3.3-5.8c0.5-0.8,0.9-1.6,1.4-2.4 c0.5-0.9,1.1-1.8,1.6-2.6s1.3-1.9,1.9-2.9s1.2-1.8,1.8-2.7c1.2-1.8,2.4-3.6,3.6-5.4c0.3-0.4,0.6-0.9,0.9-1.3s0.6-0.9,1-1.3 c0.1-0.2,0.2-0.3,0.4-0.5l0.4-0.5l0.6-0.8c0.4-0.4,0.8-0.9,1.2-1.3c0.8-0.8,1.7-1.6,2.7-2.2c1.1-0.7,2.2-1.4,3.4-1.9 c1-0.4,2.1-0.8,3.2-1c0.6-0.1,1.2-0.2,1.8-0.3c0.7-0.1,1.4-0.1,2.2,0c0.6,0.1,1.1,0.2,1.6,0.3c0.4,0.1,0.9,0.3,1.3,0.5 c0.5,0.2,0.9,0.4,1.4,0.7c0.2,0.1,0.5,0.3,0.7,0.5s0.5,0.4,0.7,0.6c0.4,0.3,0.7,0.7,1.1,1.1c0.4,0.5,0.7,0.9,1,1.4 c0.3,0.5,0.5,1,0.7,1.5c0.1,0.2,0.2,0.5,0.3,0.8l0.2,0.6c0.1,0.2,0.1,0.4,0.2,0.6s0.2,0.6,0.3,0.9c0.1,0.5,0.2,1,0.3,1.4 c0,0.2,0.1,0.5,0.1,0.8s0.1,0.4,0.1,0.6c0.1,0.5,0.2,1,0.2,1.6c0.1,1,0.3,2,0.4,3s0.3,2.1,0.4,3.2c0,0.6,0.1,1.2,0.2,1.7 s0.1,1.1,0.1,1.6s0,0.9,0.1,1.4s0,1,0.1,1.5s0,1,0,1.5c0,0.7,0,1.3,0,2s0,1,0,1.5l-0.1,1.5c0,0.5,0,1-0.1,1.5c0,0.7-0.1,1.3-0.1,2 c-0.1,1-0.1,1.9-0.2,2.9c-0.2,2.1-0.3,4.1-0.5,6.2c-0.3,2.8-0.6,5.6-1,8.3c-0.2,1.4-0.4,2.8-0.6,4.2l-0.2,1.2 c-0.1,0.4-0.1,0.8-0.2,1.2s-0.1,0.6-0.2,0.9c0,0.2-0.1,0.3-0.1,0.5c0,0.1-0.1,0.3-0.1,0.4c0,0.1-0.1,0.1-0.1,0.2 c-0.1,0.1-0.3,0.2-0.4,0.2h-0.1c-0.2,0-0.4-0.2-0.4-0.4c0-0.1,0-0.2,0-0.2c0-0.1,0-0.2,0-0.3v-0.4c0-0.2,0.2-0.4,0.4-0.5 c0.3-1.1,0.4-2.3,0.6-3.4c0.1-0.7,0.2-1.3,0.3-1.9l0.3-2l0,0l0,0c0.1-1,0.3-2,0.4-3.1s0.3-2.2,0.4-3.3s0.2-2,0.3-2.9 s0.2-2.2,0.3-3.3c0.1-1,0.1-1.9,0.2-2.9c0-0.5,0.1-1.1,0.1-1.6l0.1-2c0-0.5,0-0.9,0.1-1.4s0-1,0.1-1.5s0-1.1,0-1.6s0-1.3,0-2l0,0 v-1.7c0-0.5,0-1.1-0.1-1.6c-0.1-1-0.1-2-0.2-2.9c-0.1-0.5-0.1-1-0.1-1.5s-0.2-1.2-0.2-1.8c-0.1-1.1-0.2-2.1-0.4-3.2v0.1 c-0.1-0.5-0.1-0.9-0.2-1.4s-0.1-0.9-0.2-1.4s-0.2-0.9-0.2-1.3s-0.2-0.8-0.3-1.3s-0.2-0.8-0.3-1.1c-0.1-0.2-0.1-0.4-0.2-0.6 s-0.1-0.3-0.1-0.4s-0.2-0.5-0.3-0.7c-0.2-0.4-0.4-0.9-0.7-1.3c-0.2-0.3-0.4-0.6-0.6-0.9s-0.4-0.6-0.7-0.8s-0.5-0.5-0.8-0.7 s-0.7-0.5-1.1-0.8c-0.4-0.2-0.8-0.4-1.3-0.6c-0.4-0.1-0.8-0.3-1.1-0.4s-0.8-0.2-1.2-0.2h0.1L186.7,1H186h-0.6 c-0.4,0-0.7,0.1-1.1,0.1c-0.5,0.1-1.1,0.2-1.6,0.3c-0.7,0.2-1.4,0.4-2.1,0.7c-0.4,0.2-0.8,0.3-1.2,0.5s-0.8,0.4-1.1,0.6 s-0.7,0.4-1,0.6s-0.8,0.5-1.1,0.8c-0.6,0.5-1.1,0.9-1.7,1.5l0,0l0,0l0,0c-0.5,0.5-0.9,1-1.3,1.5l-0.9,1.1l-0.9,1.2l-0.6,0.8 c-0.5,0.8-1.1,1.6-1.6,2.3c-0.9,1.4-1.8,2.7-2.8,4.1c-0.5,0.8-1.1,1.6-1.6,2.4c-0.4,0.6-0.9,1.2-1.3,1.9c-0.3,0.4-0.6,0.9-0.9,1.3 s-0.4,0.6-0.6,1c-0.4,0.7-0.9,1.4-1.3,2.1l0,0l0,0l0,0c-1,1.8-2,3.5-3.1,5.3l-3.3,5.7c-0.5,0.9-1,1.7-1.5,2.6 c-0.2,0.4-0.5,0.9-0.7,1.3c-0.1,0.2-0.2,0.5-0.4,0.7l-0.4,0.7c-0.2,0.5-0.5,1-0.7,1.5s-0.5,1-0.7,1.5c-0.5,1-0.9,2-1.4,3 c-0.8,1.8-1.6,3.5-2.4,5.2c-0.9,1.9-1.8,3.7-2.7,5.6c-0.8,1.7-1.6,3.4-2.3,5.1s-1.6,3.6-2.4,5.4l0,0c-0.3,0.7-0.6,1.4-0.9,2.1 l-0.4,1c-0.1,0.3-0.2,0.6-0.4,0.8c-0.1,0.1-0.2,0.2-0.3,0.3c-0.2,0.1-0.4,0.1-0.6,0c-0.1,0-0.2-0.1-0.2-0.2 c-0.1-0.1-0.1-0.2-0.1-0.3c0-0.1,0-0.1,0-0.2c0-0.1,0-0.2,0-0.3s0-0.4,0.1-0.6c0.1-0.7,0.2-1.3,0.3-2l0.3-1.8c0.1-0.7,0.2-1.3,0.3-2 v0l0.2-1.3c0.1-0.4,0.1-0.9,0.1-1.4c0-0.2,0-0.4,0-0.6s0-0.5,0.1-0.8s0-0.3,0-0.5s0-0.5,0-0.8c0-0.4,0-0.9,0-1.3c0-0.3,0-0.5,0-0.8 c0-0.1,0-0.2,0-0.3c0-0.2,0-0.5-0.1-0.7c-0.1-1-0.2-2-0.3-3c-0.2-2.1-0.4-4.3-0.6-6.5c-0.1-2-0.2-4-0.2-6s-0.1-4.2-0.3-6.3 c-0.1-1.2-0.2-2.4-0.4-3.6c-0.1-0.9-0.3-1.9-0.5-2.8c-0.1-0.5-0.2-0.9-0.3-1.4s-0.2-1-0.4-1.5s-0.3-1-0.4-1.5s-0.3-1-0.5-1.5 l-0.3-0.6c-0.1-0.2-0.1-0.3-0.2-0.5c-0.2-0.3-0.3-0.6-0.5-1l-0.4-0.7c-0.1-0.1-0.1-0.2-0.2-0.3l-0.3-0.4c-0.2-0.2-0.4-0.5-0.6-0.7 s-0.2-0.2-0.2-0.3l-0.4-0.4l-0.6-0.6c-0.1-0.1-0.2-0.2-0.4-0.3l-0.3-0.3l-0.7-0.5c-0.1-0.1-0.3-0.2-0.4-0.3l-0.4-0.3l-0.8-0.5 c-0.1-0.1-0.3-0.1-0.4-0.2l-0.4-0.2c-0.4-0.2-0.7-0.3-1.1-0.4l-0.6-0.2l-0.8-0.2c-0.5-0.1-0.9-0.2-1.4-0.3h0.1 c-0.2,0-0.4-0.1-0.7-0.1c-0.2,0-0.5,0-0.7,0h0.1c-0.3,0-0.7,0-1,0.1c-0.2,0-0.4,0-0.6,0.1c-0.3,0.1-0.6,0.1-0.9,0.2 c-0.6,0.2-1.1,0.4-1.6,0.6c-0.8,0.3-1.6,0.7-2.4,1.1l-1.5,0.8l0,0l-1.9,1.2l-2.3,1.4c-0.6,0.4-1.2,0.7-1.8,1.1 c-0.3,0.2-0.7,0.4-1,0.6l-1.2,0.8l-1.2,0.9l-0.3,0.3l-0.8,0.7c-0.3,0.3-0.7,0.6-1,0.9l-1,0.9c-1.4,1.3-2.7,2.5-4.1,3.8l0,0 c-0.7,0.7-1.4,1.4-2,2.1l-1,1.1c-0.4,0.4-0.7,0.8-1.1,1.2s-0.6,0.7-0.9,1.1l-0.9,1c-0.6,0.7-1.3,1.5-1.9,2.2 c-1.3,1.5-2.6,2.9-3.9,4.3c-0.7,0.7-1.3,1.4-2,2.1c-0.4,0.4-0.8,0.8-1.1,1.2s-0.6,0.8-1,1.1s-0.6,0.9-1,1.4s-0.8,1.1-1.2,1.6l-2,2.8 c-0.7,1-1.5,2-2.2,3.1l-0.6,0.9c-0.2,0.3-0.4,0.5-0.5,0.8c-0.3,0.5-0.7,1-1,1.6l-0.8,1.4c-0.3,0.5-0.6,1-0.8,1.5 C70,63.1,69.5,64,69,65c-1,1.8-2,3.6-2.9,5.3c-0.5,0.9-1,1.7-1.5,2.6l-0.3,0.6l-0.2,0.3c-0.1,0.1-0.1,0.3-0.2,0.4 c-0.1,0.2-0.3,0.3-0.4,0.3c-0.2,0-0.4,0-0.5-0.1c0,0-0.1-0.1-0.1-0.1c-0.1-0.1-0.1-0.1-0.1-0.2c0-0.1-0.1-0.3-0.1-0.4 c0-0.2,0-0.4,0-0.6c0-0.3,0-0.6,0-1s0-0.6,0.1-0.9c0.1-1,0.2-2.1,0.3-3.1c0.1-0.8,0.1-1.6,0.1-2.4c0-0.5,0-1,0-1.4s0-1.2-0.1-1.8 c0-1.1-0.1-2.2-0.2-3.2c-0.2-2.2-0.4-4.4-0.7-6.6c-0.2-1.6-0.5-3.2-0.8-4.8c-0.2-0.9-0.3-1.7-0.5-2.6s-0.4-1.6-0.5-2.3l-0.3-1 c-0.1-0.4-0.2-0.7-0.3-1.1s-0.2-0.7-0.4-1s-0.2-0.6-0.4-1s-0.2-0.6-0.4-0.9s-0.3-0.6-0.4-0.9s-0.3-0.6-0.5-0.9s-0.2-0.3-0.2-0.4 l-0.2-0.4l0,0l-0.5-0.8c-0.1-0.2-0.2-0.3-0.3-0.4L56,33.5l-0.7-0.8c-0.1-0.1-0.2-0.2-0.3-0.4l-0.4-0.5c-0.3-0.3-0.5-0.5-0.8-0.8 c-0.1-0.1-0.2-0.2-0.4-0.3l-0.5-0.4L52,29.7l-0.4-0.2l-0.5-0.3l-0.9-0.5c-0.1-0.1-0.3-0.1-0.4-0.2l-0.6-0.3h0.1l-1-0.4l-0.4-0.2 l-0.6-0.2c-0.3-0.1-0.7-0.2-1-0.4s-0.7-0.2-1-0.3l-1-0.3c-0.3-0.1-0.7-0.1-1-0.2s-0.7-0.1-1-0.2l-1-0.2l-0.8-0.1 c-0.5,0-0.9-0.1-1.4-0.1c-0.3,0-0.7,0-1,0.1l0,0c-0.3,0-0.7,0.1-1,0.2S36.4,26,36.2,26l0,0c-0.5,0.1-1,0.3-1.5,0.5l-1,0.4 c-0.5,0.2-1,0.5-1.6,0.7c-0.2,0.1-0.5,0.2-0.7,0.4l-1,0.5c-0.4,0.2-0.8,0.5-1.1,0.7c-0.2,0.1-0.4,0.3-0.6,0.4L28,30.2l-0.8,0.6 c-0.1,0.1-0.2,0.2-0.3,0.3l-0.5,0.4l-0.7,0.7c-0.2,0.2-0.5,0.5-0.7,0.8c-0.5,0.5-0.9,1.1-1.4,1.6c-0.9,1-1.7,2.1-2.5,3.1 c-2.6,3.4-5.1,6.9-7.3,10.5c-0.4,0.7-0.8,1.4-1.2,2.1s-0.7,1.4-1.1,2.2s-0.6,1.3-0.9,2s-0.6,1.5-1,2.2l0,0 c-1.5,3.4-2.9,6.9-4.3,10.3S2.4,73.7,0.9,77c-0.1,0.2-0.2,0.3-0.4,0.3C0.4,77.3,0.3,77.3,0.3,77.2z" fill="#00bf63"/></g></svg>