<?xml version="1.0" encoding="UTF-8" standalone="no"?><svg xmlns="http://www.w3.org/2000/svg" xmlns:xlink="http://www.w3.org/1999/xlink" fill="#b0d8db" height="600" preserveAspectRatio="xMidYMid meet" version="1" viewBox="0.0 0.0 600.0 600.0" width="600" zoomAndPan="magnify"><g><g id="change1_1"><path d="M 600 300 C 600 465.6875 465.6875 600 300 600 C 134.3125 600 0 465.6875 0 300 C 0 134.3125 134.3125 0 300 0 C 465.6875 0 600 134.3125 600 300" fill="inherit"/></g><g id="change2_1"><path d="M 219.21875 146.242188 C 228.347656 157.539062 236.550781 169.617188 244.921875 181.5 C 261.636719 205.214844 262.972656 226.917969 236.179688 244.679688 C 221.140625 254.65625 220.503906 268.574219 227.136719 283.128906 C 245.40625 323.234375 273.503906 354.171875 314.332031 372.261719 C 332.394531 380.253906 348.574219 380.121094 361.308594 361.308594 C 368.039062 351.351562 376.011719 341.3125 390.765625 342.085938 C 410.003906 343.097656 474.363281 389.6875 481.179688 408.121094 C 484.003906 415.746094 483.835938 423.347656 481.234375 431.113281 C 466.769531 474.386719 431.238281 492.359375 389.097656 475.28125 C 263.367188 424.328125 175.746094 334.425781 122.132812 210.550781 C 119.089844 203.480469 117.855469 195.628906 116.761719 191.65625 C 116.425781 163.4375 143.566406 130.324219 170.539062 120.722656 C 196.484375 111.488281 206.820312 130.894531 219.21875 146.242188" fill="#5657a6"/></g></g></svg>