<?xml version="1.0" encoding="UTF-8" standalone="no"?><svg xmlns="http://www.w3.org/2000/svg" xmlns:xlink="http://www.w3.org/1999/xlink" fill="#000000" height="358" preserveAspectRatio="xMidYMid meet" version="1" viewBox="59.1 33.6 268.9 358.0" width="268.9" zoomAndPan="magnify"><g fill="#00bf63" id="change1_1"><path d="M 254.273438 232.449219 C 216.753906 193.609375 214.550781 141.363281 214.53125 140.839844 L 209.457031 140.839844 C 209.4375 141.363281 207.292969 193.554688 169.714844 232.449219 C 148.03125 254.898438 127.378906 263.648438 96.070312 263.648438 L 96.070312 268.730469 C 125.460938 268.730469 151.214844 280.589844 174.796875 305.003906 C 204.367188 335.609375 208.886719 371.125 209.457031 385.074219 C 209.300781 389.152344 209.457031 391.519531 209.457031 391.621094 L 214.53125 391.621094 C 214.53125 391.519531 214.699219 389.152344 214.53125 385.074219 C 215.101562 371.125 219.625 335.609375 249.191406 305.003906 C 272.78125 280.589844 298.527344 268.730469 327.921875 268.730469 L 327.921875 263.648438 C 296.613281 263.648438 275.957031 254.898438 254.273438 232.449219" fill="inherit"/><path d="M 135.898438 133.996094 C 117.671875 115.128906 116.605469 89.761719 116.589844 89.507812 L 114.132812 89.507812 C 114.121094 89.761719 113.078125 115.105469 94.824219 133.996094 C 84.296875 144.894531 74.269531 149.148438 59.058594 149.148438 L 59.058594 151.617188 C 73.335938 151.617188 85.839844 157.378906 97.300781 169.226562 C 111.65625 184.09375 113.847656 201.339844 114.132812 208.117188 C 114.050781 210.097656 114.132812 211.25 114.132812 211.296875 L 116.589844 211.296875 C 116.589844 211.25 116.671875 210.097656 116.589844 208.117188 C 116.875 201.339844 119.066406 184.09375 133.421875 169.226562 C 144.878906 157.378906 157.386719 151.617188 171.660156 151.617188 L 171.660156 149.148438 C 156.453125 149.148438 146.429688 144.894531 135.898438 133.996094" fill="inherit"/><path d="M 252.308594 64.582031 C 239.601562 51.433594 238.863281 33.753906 238.855469 33.578125 L 237.132812 33.578125 C 237.132812 33.753906 236.417969 51.425781 223.691406 64.582031 C 216.351562 72.179688 209.363281 75.132812 198.765625 75.132812 L 198.765625 76.855469 C 208.707031 76.855469 217.429688 80.867188 225.410156 89.132812 C 235.410156 99.488281 236.949219 111.507812 237.132812 116.230469 C 237.089844 117.609375 237.132812 118.410156 237.132812 118.4375 L 238.855469 118.4375 C 238.855469 118.410156 238.910156 117.609375 238.855469 116.230469 C 239.050781 111.507812 240.578125 99.488281 250.585938 89.132812 C 258.570312 80.867188 267.28125 76.855469 277.226562 76.855469 L 277.226562 75.132812 C 266.636719 75.132812 259.648438 72.179688 252.308594 64.582031" fill="inherit"/></g></svg>