<?xml version="1.0" encoding="UTF-8" standalone="no"?><svg xmlns="http://www.w3.org/2000/svg" xmlns:xlink="http://www.w3.org/1999/xlink" fill="#000000" height="107.9" preserveAspectRatio="xMidYMid meet" version="1" viewBox="0.1 -0.1 108.0 107.9" width="108" zoomAndPan="magnify"><g id="change1_1"><path d="M51.6,107.8c-0.3-0.1-0.6-0.3-0.8-0.5c-0.2-0.2-0.5-0.5-0.7-0.8c-0.4-0.5-0.9-1-1.3-1.5s-0.8-1.1-1.2-1.6 l-1.2-1.6c-0.4-0.6-0.7-1.2-1.1-1.8c-0.4-0.8-0.8-1.7-1.2-2.5s-0.8-1.7-1.2-2.6c-0.6-1.2-1.2-2.3-1.9-3.4s-1.4-2.2-2-3.4 c-0.2-0.3-0.3-0.7-0.5-1l0,0c-0.1-0.1-0.1-0.2-0.2-0.3v-0.1l0,0c0-0.1-0.1-0.1-0.2-0.2l0,0l0,0h-0.1H38h-0.1h-0.1 c-0.1,0-0.2,0-0.2,0L37,86.7c-0.8,0.2-1.5,0.4-2.3,0.7l0,0c-1.3,0.5-2.5,1-3.8,1.4S28.3,89.6,27,90s-2.6,0.8-3.9,1.2l-3.9,1.2 c-0.6,0.2-1.1,0.4-1.7,0.5L17.2,93c-0.2,0.1-0.5,0.1-0.7,0.1c-0.2,0-0.5-0.1-0.6-0.3c-0.2-0.2-0.3-0.5-0.3-0.8c0-0.4,0-0.7,0-1.1 c0-0.3,0.1-0.6,0.1-1c0.1-0.6,0.2-1.2,0.3-1.8l0,0c0-0.1,0-0.1,0-0.2l0,0v-0.2c0.3-1.3,0.5-2.6,0.8-4s0.5-2.7,0.8-4 c0.1-0.6,0.3-1.3,0.4-1.9s0.3-1.2,0.4-1.8l0.3-1.4l0.1-0.7c0-0.2,0.1-0.4,0.1-0.7v-0.1v-0.1l-0.1-0.1l-0.2-0.3 c-0.3-0.4-0.6-0.7-0.9-1.1c-0.2-0.2-0.4-0.5-0.7-0.7s-0.5-0.5-0.7-0.7c-1-0.9-2.1-1.7-3.1-2.5s-2.1-1.7-3.2-2.5s-2.2-1.6-3.3-2.4 l-1.6-1.2l-1.6-1.2L2,59.2l-0.7-0.5c-0.2-0.2-0.5-0.3-0.8-0.5c-0.1-0.1-0.2-0.1-0.2-0.2c-0.1-0.1-0.2-0.2-0.2-0.4c0-0.2,0-0.3,0-0.5 c0-0.2,0.1-0.4,0.2-0.6c0.2-0.3,0.4-0.6,0.6-0.8c0.4-0.5,0.9-0.9,1.4-1.3c0.5-0.4,1-0.8,1.6-1.2s1.1-0.8,1.6-1.1L7.2,51 c0.5-0.4,1.1-0.8,1.6-1.2s1.1-0.8,1.7-1.2s1.1-0.7,1.7-1s1.2-0.7,1.8-0.9c0.6-0.3,1.2-0.6,1.7-1l1.1-0.7c0.2-0.1,0.5-0.1,0.7,0.2 c0,0,0,0,0,0c0.1,0.1,0.1,0.2,0,0.4c0,0.1-0.1,0.2-0.2,0.3c-0.6,0.4-1.2,0.8-1.8,1.1s-1.2,0.6-1.7,0.9c-1.2,0.6-2.3,1.3-3.4,2 L10.2,50l0,0c-0.5,0.4-1.1,0.7-1.6,1.1L7,52.3c-1.1,0.8-2.2,1.5-3.3,2.3c-0.5,0.4-1.1,0.8-1.6,1.3c-0.2,0.2-0.5,0.5-0.7,0.7 c-0.1,0.1-0.2,0.2-0.3,0.3c0,0-0.1,0.1-0.1,0.2C1,57.1,1,57,1,57c0,0,0,0.1-0.1,0.1v0.1v0.1H1l0,0l0,0l0,0l0,0 c0.2,0.2,0.5,0.4,0.8,0.5s0.5,0.3,0.7,0.5c0.5,0.4,1,0.8,1.6,1.2s1,0.8,1.6,1.2L7.2,62c1.1,0.8,2.2,1.6,3.3,2.4s2.2,1.6,3.3,2.4 s2.2,1.7,3.2,2.6c0.5,0.5,1,0.9,1.5,1.4c0.2,0.2,0.5,0.5,0.7,0.8c0.2,0.3,0.4,0.6,0.6,0.9c0.1,0.3,0.2,0.6,0.2,0.9 c0,0.2,0,0.4-0.1,0.5c-0.1,0.3-0.1,0.6-0.2,0.9c-0.1,0.7-0.2,1.3-0.4,2c-0.1,0.6-0.3,1.3-0.4,1.9l-0.4,2c-0.1,0.6-0.3,1.2-0.4,1.8 c0,0,0,0,0-0.1c-0.3,1.3-0.5,2.7-0.8,4l-0.2,1L17,87.9c0,0,0,0,0,0.1l0,0c0,0,0,0,0,0.1l0,0c0,0.1,0,0.1,0,0.2c0,0,0,0,0,0.1l0,0 l0,0c-0.2,1-0.4,2-0.5,3v0.4V92V92v0.1l0,0h0.1c0.3-0.1,0.7-0.2,1-0.3l0.9-0.3l2-0.7c1.3-0.4,2.6-0.8,3.8-1.2c1.9-0.5,3.8-1,5.7-1.6 c0.6-0.2,1.2-0.4,1.8-0.7l1.9-0.7c0.6-0.2,1.3-0.5,1.9-0.7c0.6-0.2,1.3-0.3,2-0.4c0.3,0,0.6,0.1,0.9,0.2c0.2,0.1,0.4,0.2,0.5,0.4 c0.1,0.1,0.2,0.2,0.2,0.4c0.2,0.3,0.3,0.6,0.5,0.9c0.6,1.2,1.3,2.2,1.9,3.4c0.3,0.6,0.7,1.2,1,1.7s0.7,1.1,0.9,1.7 c0.8,1.7,1.5,3.4,2.4,5l0,0c0.2,0.3,0.4,0.7,0.5,1s0.4,0.7,0.6,1c0.5,0.7,1.1,1.5,1.6,2.2c0.3,0.4,0.6,0.8,0.9,1.1s0.6,0.7,0.9,1 c0.3,0.4,0.6,0.7,1,1.1l0.2,0.1l0,0c0.3-0.5,0.7-1.1,1-1.6s0.7-1.1,1-1.7c0.7-1.2,1.3-2.3,2.1-3.5c0.3-0.6,0.7-1.1,1-1.7l1-1.7 c0.3-0.6,0.7-1.1,1.1-1.7s0.8-1.2,1.2-1.7c0.8-1.1,1.6-2.3,2.4-3.4c0.4-0.6,0.8-1.2,1.1-1.8v0.1c0-0.1,0.1-0.2,0.2-0.3 c0-0.3,0.3-0.4,0.5-0.4c0.2,0,0.4,0.2,0.4,0.4c0,0.2,0,0.3-0.1,0.5c-0.1,0.3-0.3,0.6-0.5,0.9c-0.3,0.6-0.7,1.2-1.1,1.7l-2.3,3.3 l-1,1.4l0,0c-0.8,1.1-1.4,2.3-2.1,3.4c-0.3,0.6-0.7,1.1-1.1,1.7s-0.7,1.2-1,1.7s-0.7,1.1-1,1.7s-0.7,1.1-1,1.7 c-0.2,0.3-0.3,0.6-0.5,0.8l-0.2,0.4c-0.1,0.2-0.2,0.3-0.3,0.5c-0.1,0.1-0.2,0.2-0.3,0.2c-0.1,0-0.2,0-0.3,0L51.6,107.8z M17.2,45.2 h0.1c0.2-0.1,0.4-0.3,0.4-0.5c0-0.1,0-0.1,0-0.2l0,0c0-0.1,0-0.2-0.1-0.3l0,0l0,0c-0.2-0.9-0.4-1.9-0.5-2.8 c-0.4-2.1-0.7-4.2-1.1-6.2v0.1c0-0.2-0.1-0.4-0.1-0.7l0,0c-0.2-1.2-0.5-2.3-0.7-3.5l0,0c-0.1-0.5-0.2-0.9-0.3-1.4 c-0.4-2-0.8-4.1-1.1-6.1c-0.2-1-0.3-2-0.5-3l-0.3-1.5c0-0.2-0.1-0.5-0.1-0.7s-0.1-0.5-0.1-0.7l0,0h0.1h0.1l0,0 c0.2,0,0.5-0.1,0.8-0.1l1.1,0H16h0.5l3.2,0.3c1,0.1,2,0.2,3.1,0.3s2,0.1,3.1,0.2s2,0.2,3,0.5c0.3,0.1,0.7,0.1,1,0.2l1,0.3 c0.4,0.1,0.7,0.2,1.1,0.3l1.1,0.2h0h0.1c0.1,0,0.3,0,0.4,0c0.1-0.1,0.2-0.2,0.2-0.3c0.1-0.2-0.1-0.5-0.3-0.6c0,0,0,0,0,0l-0.8-0.2 c-0.5-0.1-1-0.2-1.4-0.4s-1-0.3-1.5-0.4s-1-0.2-1.5-0.3c-1-0.2-2.1-0.3-3.1-0.4s-2-0.1-3-0.2s-2.1-0.2-3.1-0.3s-2.1-0.2-3.2-0.3 c-0.5,0-1,0-1.4,0c-0.5,0-1,0.1-1.5,0.1h0.1l-0.2,0h0.1c-0.2,0-0.4,0.1-0.6,0.3c-0.2,0.2-0.3,0.4-0.3,0.7c0,0.3,0.1,0.5,0.1,0.8 c0.1,0.4,0.2,0.9,0.2,1.3c0.2,0.9,0.3,1.8,0.5,2.7s0.3,2.1,0.5,3.1s0.4,2,0.6,3s0.4,2.1,0.6,3.1l0.6,3c0,0,0,0,0,0.1v-0.1l0,0l0,0 l0,0c0,0.2,0.1,0.4,0.1,0.6l0,0l0,0c0,0,0,0,0-0.1c0.2,1.1,0.4,2.3,0.6,3.4c0.2,1,0.3,2,0.5,3c0.1,0.5,0.2,1.1,0.3,1.6 c0,0.2,0.1,0.5,0.1,0.7l0.1,0.5c0,0.1,0.1,0.3,0.1,0.4C16.9,45.1,17,45.2,17.2,45.2z M65.4,88.3c0.4,0,0.8,0,1.1,0h-0.1 c1.4-0.1,2.9-0.3,4.3-0.4c1.1-0.1,2.3-0.2,3.4-0.3l3.3-0.3c2.2-0.2,4.4-0.4,6.6-0.6l3.3-0.4L89,86h0.3c0.1,0,0.3,0,0.4,0 c0.6-0.1,0.7-0.8,0.6-1.3c0-0.6-0.1-1.2-0.3-1.7c-0.1-0.5-0.3-1.1-0.4-1.6c-0.3-1.1-0.7-2.1-1.1-3.1c-0.2-0.6-0.4-1.2-0.6-1.7 l-0.5-1.7L87,73.2c-0.2-0.5-0.3-1-0.5-1.6c-0.3-1-0.6-2.1-0.9-3.1s-0.6-2.1-0.9-3.1L84.3,64c-0.1-0.3-0.2-0.5-0.2-0.8 s-0.1-0.5-0.2-0.7v-0.1l0,0c0,0,0,0,0,0.1v-0.1l0,0l0,0l0,0l0.1-0.1c0.1-0.1,0.1-0.1,0.2-0.2c0.8-0.7,1.6-1.3,2.5-1.9 c1-0.7,2.1-1.3,3.1-2s1.8-1.2,2.8-1.7s1.9-1.1,2.9-1.6s1.9-1,2.9-1.5c0.5-0.3,1-0.5,1.4-0.8s0.9-0.5,1.4-0.8l0.4-0.2l0,0 c1-0.5,2-1,3.1-1.5l1.4-0.8l0.7-0.4c0.2-0.1,0.4-0.2,0.6-0.4l0.3-0.2c0.1-0.1,0.3-0.2,0.3-0.4c0.1-0.2,0.1-0.5-0.1-0.7 c-0.1-0.2-0.3-0.3-0.4-0.4c-0.4-0.3-0.9-0.6-1.4-0.8c-1.9-1-4-1.8-5.9-2.8l-0.3-0.1l0,0c-0.7-0.3-1.3-0.7-2-1.1l-1.4-0.8l-1.4-0.8 c-1-0.5-2-1-3-1.5s-1.9-0.9-2.9-1.3s-1.9-0.8-2.8-1.3c-0.4-0.2-0.8-0.4-1.2-0.6c-0.2-0.1-0.5,0-0.7,0.2c-0.1,0.2,0,0.5,0.2,0.7 c0,0,0.1,0,0.1,0l0.9,0.5l0,0c0.7,0.3,1.4,0.7,2.1,1l2.9,1.3c1,0.4,2,0.9,3,1.4l0.2,0.1c1,0.5,1.9,1,2.9,1.5s1.9,1,2.9,1.5h-0.1 l0.2,0.1l0,0c0.9,0.5,1.8,0.8,2.8,1.3s1.8,0.8,2.7,1.3c0.5,0.2,1,0.5,1.4,0.8l0.3,0.2l-0.1,0.1c-0.2,0.1-0.4,0.2-0.6,0.3l-0.7,0.3 l-1.3,0.7c-0.9,0.5-1.9,1-2.8,1.4l0,0L101,51l0,0H101c-0.5,0.2-1,0.5-1.5,0.8s-1,0.5-1.5,0.8c-0.9,0.5-1.9,1-2.9,1.5s-2,1-2.9,1.6 s-1.9,1.1-2.8,1.7s-1.9,1.2-2.8,1.8c-0.9,0.6-1.8,1.2-2.6,1.8c-0.5,0.4-1.2,0.9-1.1,1.6c0.1,0.3,0.1,0.5,0.2,0.8 c0.1,0.2,0.1,0.5,0.2,0.8c0.3,1,0.6,2,0.9,3c0.6,2.1,1.2,4.2,1.8,6.3l0.5,1.6c0.2,0.5,0.3,1,0.5,1.5c0.3,1.1,0.7,2.2,1.1,3.2l0,0 c0.2,0.7,0.5,1.3,0.7,2s0.3,1.3,0.5,2c0.1,0.3,0.1,0.6,0.2,1c0,0.1,0,0.3,0,0.4s0,0,0,0.1l-0.5,0.1l-0.7,0.1l-1.4,0.2 c-1.1,0.1-2.2,0.3-3.3,0.4s-2.2,0.2-3.2,0.3l-3.4,0.3l-3.2,0.3l-3.4,0.3l-1.6,0.2c-0.5,0.1-1.1,0.1-1.6,0.2h-0.5c-0.9,0-1.9,0-2.9,0 c-0.3,0-0.5,0.2-0.5,0.5c0,0.3,0.2,0.5,0.5,0.5h0h1.8L65.4,88.3z M85.4,37.3c0.3,0,0.5-0.2,0.5-0.5s-0.2-0.5-0.5-0.5 c-0.3,0-0.5,0.2-0.5,0.5c0,0,0,0,0,0C85,37.1,85.2,37.3,85.4,37.3C85.5,37.3,85.5,37.3,85.4,37.3L85.4,37.3z M84.4,37 c0.2,0,0.3-0.1,0.4-0.2c0.1-0.2,0.2-0.3,0.2-0.5l0,0l0,0l0,0c0,0,0,0,0-0.1s0,0,0-0.1s0,0,0,0c0.1-0.2,0.1-0.5,0.2-0.7 c0.1-0.5,0.2-1,0.3-1.5s0.2-1,0.3-1.5c0.1-0.2,0.1-0.5,0.2-0.7s0.1-0.5,0.2-0.7c0.2-0.6,0.4-1.1,0.6-1.7s0.4-1.1,0.5-1.6 c0.3-1,0.6-2,0.9-3c0.1-0.5,0.3-1,0.4-1.4s0.3-1,0.5-1.5v0.1l0.1-0.4v0.1c0.2-0.6,0.4-1.3,0.6-1.9s0.3-1.2,0.5-1.9 c0.1-0.4,0.2-0.7,0.3-1s0.2-0.7,0.3-1c0.2-0.7,0.3-1.4,0.5-2c0.1-0.4,0.2-0.7,0.3-1.1s0.2-0.6,0.2-0.9c0-0.3-0.1-0.5-0.4-0.6 c-0.3-0.1-0.5,0.1-0.6,0.4c0,0.2-0.1,0.4-0.2,0.6s-0.1,0.4-0.2,0.7c-0.1,0.4-0.2,0.8-0.3,1.2l-0.3,1.2c-0.2,0.6-0.4,1.2-0.6,1.8 s-0.3,1.2-0.5,1.9c-0.2,0.8-0.5,1.6-0.7,2.4v-0.1c0,0.1-0.1,0.2-0.1,0.4c-0.1,0.4-0.3,0.9-0.4,1.3s-0.3,0.8-0.4,1.2 c-0.3,1-0.6,2-0.9,3c-0.2,0.5-0.3,1-0.5,1.4s-0.3,0.9-0.5,1.4s-0.3,1-0.5,1.5C85,32.1,85,32.5,84.9,33s-0.2,1-0.3,1.5 s-0.2,0.9-0.4,1.4l0,0l0,0V36l0,0l0,0c0,0.1,0,0.2-0.1,0.2l0,0c0,0-0.1,0.1-0.1,0.2c-0.1,0.2,0,0.4,0.1,0.5C84.2,37,84.3,37,84.4,37 L84.4,37z M66.9,20.3L66.9,20.3c0.3,0,0.5-0.1,0.7-0.2l0.6-0.2c0.4-0.1,0.7-0.2,1.1-0.3s0.7-0.1,1-0.2l1.1-0.3c1-0.3,1.9-0.6,2.9-1 l1.4-0.5c0.5-0.2,1-0.3,1.4-0.5l0,0h0.1l0,0l1.8-0.7h-0.1l0.9-0.3c1-0.3,1.9-0.7,2.9-1l2.9-1c1.7-0.6,3.4-1.1,5-1.7 c0.2,0.1,0.3,0,0.5-0.1l0.1-0.1l0.1-0.1c0,0,0.1,0,0.1,0c0.2-0.1,0.3-0.4,0.2-0.6c-0.1-0.2-0.3-0.3-0.6-0.3l-0.5,0.2 c-0.7,0.3-1.4,0.5-2.1,0.7c-1,0.3-1.9,0.6-2.9,0.9l-2.9,1c-1,0.3-1.9,0.7-2.9,1c-0.5,0.2-1,0.3-1.5,0.5l-1.3,0.5l0,0l-0.1,0 l-0.2,0.1h0.1c-0.5,0.2-0.9,0.3-1.4,0.5l-1.4,0.5c-0.5,0.2-1,0.3-1.4,0.5c-1,0.3-1.9,0.6-2.9,0.8c-0.5,0.1-0.9,0.2-1.3,0.4 C68,19,67.8,19,67.5,19.1s-0.4,0.2-0.7,0.2h-0.1c-0.3,0.1-0.4,0.3-0.4,0.6C66.5,20.2,66.7,20.3,66.9,20.3L66.9,20.3z M66,20.7 L66,20.7c0.2,0,0.4-0.1,0.6-0.1c0.2-0.1,0.4-0.1,0.5-0.2l0.2-0.1l0.2-0.1c0.2-0.1,0.3-0.4,0.2-0.6c-0.1-0.2-0.4-0.4-0.6-0.2L67,19.4 l-0.2,0.1l-0.2,0.1h0.1l-0.1,0c-0.2,0.1-0.3,0.1-0.5,0.2h-0.1c-0.2-0.1-0.5-0.3-0.7-0.4l-0.9-0.5c-0.6-0.4-1.2-0.7-1.8-1.1 c-0.4-0.3-0.8-0.5-1.2-0.8s-0.8-0.6-1.2-0.9c-0.8-0.6-1.6-1.2-2.4-1.8S56,13,55.2,12.4s-1.6-1.2-2.4-1.8s-1.6-1.2-2.4-1.9 s-1.6-1.3-2.5-2s-1.6-1.3-2.4-1.9l-2.4-2c-0.5-0.4-0.9-0.8-1.4-1.2L41.1,1c-0.2-0.1-0.3-0.3-0.5-0.5c0-0.2-0.1-0.4-0.2-0.5 c-0.2-0.1-0.5,0-0.7,0.2l0,0c-0.1,0.1-0.1,0.2-0.1,0.4c0,0.2,0.1,0.3,0.2,0.4c0.2,0.2,0.3,0.4,0.5,0.5l0.6,0.5 c0.4,0.3,0.7,0.7,1.1,1c0.8,0.7,1.6,1.3,2.4,2s1.6,1.3,2.4,2l1.2,1l1.2,1c0.8,0.6,1.6,1.2,2.4,1.9s1.6,1.2,2.4,1.8s1.7,1.2,2.5,1.8 s1.6,1.2,2.4,1.8s1.6,1.2,2.4,1.8s1.6,1,2.5,1.5l1.2,0.6c0.2,0.1,0.3,0.2,0.5,0.3C65.7,20.7,65.8,20.7,66,20.7L66,20.7z M33.6,20.1 c0.1,0,0.3,0,0.4-0.1c0.1-0.1,0.2-0.2,0.2-0.4c0.1-0.1,0.1-0.3,0-0.4v-0.1c0.1-0.5,0.3-0.9,0.5-1.3s0.3-0.9,0.5-1.4 c0.3-0.9,0.6-1.8,0.9-2.6s0.7-1.9,1-2.8c0.2-0.5,0.3-0.9,0.5-1.4s0.3-1,0.5-1.5s0.3-1,0.5-1.5s0.3-0.9,0.5-1.4s0.3-1,0.5-1.4 S39.9,3,40,2.6l0,0l0.3-0.8c0.1-0.2,0.1-0.4,0.2-0.6c0.1-0.3-0.1-0.5-0.4-0.6S39.6,0.8,39.5,1l0,0c0,0.1,0,0.2-0.1,0.3 c0,0.2-0.1,0.3-0.2,0.5S39.1,2.3,39,2.5l0,0c-0.1,0.4-0.3,0.8-0.4,1.3s-0.3,0.9-0.5,1.4s-0.3,0.9-0.5,1.4s-0.3,1-0.5,1.5 s-0.3,1-0.5,1.4L36.1,11c-0.3,0.9-0.7,1.9-1,2.8s-0.7,2-1,2.9c-0.2,0.5-0.3,0.9-0.5,1.4c-0.1,0.3-0.2,0.5-0.3,0.8 c0,0.1-0.1,0.2-0.1,0.4c0,0.1-0.1,0.3-0.1,0.4C33.2,19.9,33.4,20,33.6,20.1L33.6,20.1z" fill="#65aa33"/></g></svg>