<?xml version="1.0" encoding="UTF-8" standalone="no"?><svg xmlns="http://www.w3.org/2000/svg" xmlns:xlink="http://www.w3.org/1999/xlink" fill="#ffffff" height="624" preserveAspectRatio="xMidYMid meet" version="1" viewBox="0.0 0.0 624.0 624.0" width="624" zoomAndPan="magnify"><g><g id="change1_1"><path d="M 312 624 C 483.84375 624 624 483.84375 624 312 C 624 140.15625 483.84375 0 312 0 C 140.15625 0 0 140.15625 0 312 C 0 483.84375 140.15625 624 312 624" fill="inherit" fill-rule="evenodd"/></g><g id="change2_1"><path d="M 312 127.507812 C 362.882812 127.507812 408.964844 148.164062 442.335938 181.566406 C 475.6875 214.953125 496.320312 261.070312 496.320312 312 C 496.320312 362.929688 475.6875 409.046875 442.335938 442.4375 C 408.964844 475.835938 362.882812 496.496094 312 496.496094 C 261.117188 496.496094 215.035156 475.835938 181.664062 442.4375 C 148.3125 409.046875 127.679688 362.929688 127.679688 312 C 127.679688 261.070312 148.3125 214.953125 181.664062 181.566406 C 215.035156 148.164062 261.117188 127.507812 312 127.507812 Z M 434.1875 189.664062 C 402.929688 158.378906 359.730469 139.027344 312 139.027344 C 264.269531 139.027344 221.070312 158.378906 189.8125 189.664062 C 158.539062 220.96875 139.199219 264.21875 139.199219 312 C 139.199219 359.78125 158.539062 403.035156 189.8125 434.335938 C 221.070312 465.621094 264.269531 484.976562 312 484.976562 C 359.730469 484.976562 402.929688 465.621094 434.1875 434.335938 C 465.460938 403.035156 484.800781 359.78125 484.800781 312 C 484.800781 264.21875 465.460938 220.96875 434.1875 189.664062" fill="#5657a6"/></g><g id="change2_2"><path d="M 454.472656 429.019531 C 437.296875 449.945312 415.613281 467.023438 390.914062 478.761719 C 366.976562 490.132812 340.222656 496.496094 312 496.496094 C 283.777344 496.496094 257.023438 490.132812 233.085938 478.761719 C 208.238281 466.953125 186.441406 449.738281 169.214844 428.640625 L 169.199219 428.648438 C 167.191406 426.1875 167.558594 422.558594 170.019531 420.546875 C 170.632812 420.046875 171.320312 419.691406 172.03125 419.480469 C 193.964844 410.5625 216.8125 403.683594 240.355469 399.066406 C 263.585938 394.511719 287.535156 392.132812 312 392.132812 C 336.464844 392.132812 360.414062 394.511719 383.644531 399.066406 C 407.378906 403.71875 430.402344 410.671875 452.496094 419.699219 L 450.335938 425.007812 L 452.515625 419.675781 C 455.460938 420.878906 456.871094 424.242188 455.667969 427.1875 C 455.382812 427.890625 454.96875 428.507812 454.472656 429.019531 Z M 386.007812 468.363281 C 406.90625 458.433594 425.496094 444.433594 440.753906 427.382812 C 421.71875 420.097656 401.898438 414.371094 381.4375 410.363281 C 358.964844 405.957031 335.753906 403.648438 312 403.648438 C 288.246094 403.648438 265.035156 405.957031 242.5625 410.363281 C 222.101562 414.371094 202.28125 420.097656 183.246094 427.382812 C 198.503906 444.433594 217.09375 458.433594 237.992188 468.363281 C 260.410156 479.015625 285.5 484.976562 312 484.976562 C 338.5 484.976562 363.589844 479.015625 386.007812 468.363281" fill="#5657a6"/></g><g id="change2_3"><path d="M 440.753906 196.617188 C 425.496094 179.570312 406.90625 165.566406 386.007812 155.636719 C 363.589844 144.984375 338.5 139.027344 312 139.027344 C 285.5 139.027344 260.410156 144.984375 237.992188 155.636719 C 217.09375 165.566406 198.503906 179.570312 183.246094 196.617188 C 202.28125 203.90625 222.101562 209.628906 242.5625 213.640625 C 265.035156 218.046875 288.246094 220.351562 312 220.351562 C 335.753906 220.351562 358.964844 218.046875 381.4375 213.640625 C 401.898438 209.628906 421.71875 203.90625 440.753906 196.617188 Z M 390.914062 145.242188 C 415.613281 156.976562 437.296875 174.054688 454.472656 194.980469 C 454.96875 195.496094 455.382812 196.113281 455.667969 196.816406 C 456.871094 199.761719 455.460938 203.121094 452.515625 204.324219 L 450.335938 198.992188 L 452.496094 204.304688 C 430.402344 213.328125 407.378906 220.28125 383.644531 224.933594 C 360.414062 229.488281 336.464844 231.871094 312 231.871094 C 287.535156 231.871094 263.585938 229.488281 240.355469 224.933594 C 216.8125 220.320312 193.964844 213.4375 172.03125 204.519531 C 171.320312 204.308594 170.632812 203.957031 170.019531 203.453125 C 167.558594 201.445312 167.191406 197.816406 169.199219 195.351562 L 169.214844 195.363281 C 186.441406 174.261719 208.238281 157.046875 233.085938 145.242188 C 257.023438 133.871094 283.777344 127.507812 312 127.507812 C 340.222656 127.507812 366.976562 133.871094 390.914062 145.242188" fill="#5657a6"/></g><g id="change2_4"><path d="M 312 127.507812 C 340.289062 127.507812 365.585938 148.691406 383.613281 182.9375 C 401.054688 216.074219 411.84375 261.714844 411.84375 312 C 411.84375 362.285156 401.054688 407.925781 383.613281 441.0625 C 365.585938 475.3125 340.289062 496.496094 312 496.496094 C 283.710938 496.496094 258.414062 475.3125 240.386719 441.0625 C 222.941406 407.925781 212.152344 362.285156 212.152344 312 C 212.152344 261.714844 222.941406 216.074219 240.386719 182.9375 C 258.414062 148.691406 283.710938 127.507812 312 127.507812 Z M 373.445312 188.292969 C 357.421875 157.855469 335.671875 139.027344 312 139.027344 C 288.328125 139.027344 266.578125 157.855469 250.554688 188.292969 C 233.945312 219.847656 223.675781 263.574219 223.675781 312 C 223.675781 360.425781 233.945312 404.15625 250.554688 435.707031 C 266.578125 466.148438 288.328125 484.976562 312 484.976562 C 335.671875 484.976562 357.421875 466.148438 373.445312 435.707031 C 390.050781 404.15625 400.324219 360.425781 400.324219 312 C 400.324219 263.574219 390.050781 219.847656 373.445312 188.292969" fill="#5657a6"/></g><g id="change2_5"><path d="M 133.4375 306.242188 C 130.257812 306.242188 127.679688 308.820312 127.679688 312 C 127.679688 315.183594 130.257812 317.761719 133.4375 317.761719 L 490.558594 317.761719 C 493.742188 317.761719 496.320312 315.183594 496.320312 312 C 496.320312 308.820312 493.742188 306.242188 490.558594 306.242188 L 133.4375 306.242188" fill="#5657a6"/></g></g></svg>