<?xml version="1.0" encoding="UTF-8" standalone="no"?><svg xmlns="http://www.w3.org/2000/svg" xmlns:xlink="http://www.w3.org/1999/xlink" fill="#000000" height="114.1" preserveAspectRatio="xMidYMid meet" version="1" viewBox="-0.2 -0.0 124.9 114.1" width="124.9" zoomAndPan="magnify"><g fill="#35e13b" id="change1_1"><path d="M49.865,57.612c-1.35-.369-3.006-.756-4.614-1.288a2.017,2.017,0,0,1-1.6-1.793,2.077,2.077,0,0,1,1.487-2.125,11.83,11.83,0,0,1,4.276-1c3.524.241,7.085.549,10.385,2.04a7.172,7.172,0,0,1,1.157.522,1.113,1.113,0,0,1-.063,2.04,3.223,3.223,0,0,1-1.2.392C56.527,56.805,53.36,57.184,49.865,57.612Zm-4.376-3.16c2.266,2.033,9.234,2.094,12.213.155-.051-.125-.071-.327-.157-.362a19.607,19.607,0,0,0-10.2-1.277A2.161,2.161,0,0,0,45.489,54.452Z" fill="inherit"/><path d="M82.435,55.983c-1.991-.357-3.767-.685-5.546-.992-1.471-.254-2.95-.462-4.417-.735a3.367,3.367,0,0,1-1.382-.517,1.184,1.184,0,0,1-.421-1.019,1.145,1.145,0,0,1,1-.452c3.268.632,6.53,1.3,9.779,2.023a11.961,11.961,0,0,1,2.8,1.007c.443.225,1.057.921.967,1.211a1.964,1.964,0,0,1-1.241,1.218,25.11,25.11,0,0,1-6.539.573,38.7,38.7,0,0,1-7.351-2.08,3.441,3.441,0,0,1-1.545-1.364c-.173-.257.152-.849.251-1.289a3.041,3.041,0,0,1,1.1.354c3.557,3.142,7.7,3.551,12.14,2.7C82.077,56.607,82.105,56.506,82.435,55.983Z" fill="inherit"/><path d="M64.513,68.32c-.582,3.239-.921,7.043-3.431,10.139a4.356,4.356,0,0,1-.861.935c-.983.654-2.229.067-2.064-1.077.538-3.728.993-7.516,3.224-10.729a3.171,3.171,0,0,1,1.537-1C64.216,66.141,64.591,66.473,64.513,68.32ZM62.23,69.99a9.785,9.785,0,0,0-1.392,5.327A8.193,8.193,0,0,0,62.23,69.99Z" fill="inherit"/><path d="M52.226,68.4c-.586-.376-1.428-.624-1.633-1.13a2.379,2.379,0,0,1,.411-1.9,8.572,8.572,0,0,1,2-1.889c2.581-1.871,5.208-3.68,7.808-5.526a1.467,1.467,0,0,1,2.1.082,1.551,1.551,0,0,1,.215,2.281c-1.92,2.46-3.8,5.013-6.557,6.589A24.376,24.376,0,0,1,52.226,68.4Zm8.549-8.047-.287-.366a37.739,37.739,0,0,0-4.207,2.742c-1.267,1.073-2.9,1.887-3.7,3.672C55.626,66.516,59.033,63.905,60.775,60.357Z" fill="inherit"/><path d="M67.312,41.3c-1.4.207-1.413-.681-1.793-1.237-.433-.634-.814-1.206-.17-1.893,2.43-2.592,4.848-5.195,7.313-7.753.579-.6,1.3-1.271,2.227-.558a1.635,1.635,0,0,1,.285,2.318,50.615,50.615,0,0,1-3.343,4.905,36.517,36.517,0,0,1-3.45,3.489A6,6,0,0,1,67.312,41.3Zm5.728-8.845c-2.389,1.527-3.5,4.138-5.234,6.216A11.927,11.927,0,0,0,73.04,32.453Z" fill="inherit"/><path d="M90.557,70.083c-1.5-.806-3-1.464-4.328-2.366-2.237-1.514-4.358-3.2-6.551-4.776-.492-.354-1.034-.659-.648-1.333.411-.716,1.03-.559,1.668-.24a6.039,6.039,0,0,0,1.916.782c3.918.405,6.556,2.908,9.127,5.5a1.682,1.682,0,0,1,.307,1.506C91.877,69.546,91.193,69.714,90.557,70.083Z" fill="inherit"/><path d="M68.042,58.085c.585.225.905.256,1.082.431a15.884,15.884,0,0,1,4.844,10.159,4.885,4.885,0,0,1-.027,1.067,1.973,1.973,0,0,1-3.267,1.471c-1.321-.882-1.82-2.327-2.555-3.617C66.364,64.512,67.238,61.444,68.042,58.085ZM69.3,61.652c-1.185,2.857.283,6.84,2.99,7.84C72.159,66.476,71.652,63.792,69.3,61.652Z" fill="inherit"/><path d="M76.771,66.6c.867-1,1.465-.79,1.994-.361a10.556,10.556,0,0,1,1.517,1.479c1.7,2.082,3.4,4.175,5.039,6.307a5,5,0,0,1,.781,1.735,2.321,2.321,0,0,1-1.426,2.949c-1.165.475-2,.112-2.713-1.3A27.889,27.889,0,0,1,80.6,74.286C79.631,71.59,79.5,68.52,76.771,66.6Zm5.683,7c.254,1.477.422,2.556,1.891,3.135C84.407,75.266,83.759,74.466,82.454,73.6Z" fill="inherit"/><path d="M81.758,28.686c-2.055.043-2.438-.538-1.6-2.15a17.066,17.066,0,0,1,6.24-7.091c.815-.491,1.682-1.251,2.724-.5.717.518.684,1.448-.131,2.906-.934,1.67-1.964,3.286-2.909,4.949a3.121,3.121,0,0,1-3.288,1.786A4.1,4.1,0,0,0,81.758,28.686Zm4.9-7.092a8.311,8.311,0,0,0-4.594,5.42C84.083,26.8,86.083,24.443,86.661,21.594Z" fill="inherit"/><path d="M66.894,50.5c-.343-.246-.846-.449-1.063-.82a1.163,1.163,0,0,1,.219-1.09c2.383-2.2,4.785-4.383,7.242-6.5a3.578,3.578,0,0,1,3.2-.742,1.327,1.327,0,0,1,.961,2.2.8.8,0,0,1-.126.171c-2.607,2.5-5.267,4.941-8.644,6.393A9.9,9.9,0,0,1,66.894,50.5Zm8.569-7.36c-2.581.64-5.1,2.8-5.779,4.81A19.675,19.675,0,0,0,75.463,43.136Z" fill="inherit"/><path d="M55.83,72.45a7.609,7.609,0,0,1-.644,1.615c-1.6,2.169-3,4.548-5.3,6.085a6.51,6.51,0,0,1-2.7,1.076c-1.106.137-1.6-.553-1.244-1.632a11.94,11.94,0,0,1,1.389-2.866,19.894,19.894,0,0,1,5.5-5.608,2.006,2.006,0,0,1,1.717-.1C55.1,71.3,55.446,72,55.83,72.45Zm-7.556,6.485c2.15-.76,4.742-4,4.895-5.993A12.025,12.025,0,0,0,48.274,78.935Z" fill="inherit"/><path d="M35.42,39.965a2.781,2.781,0,0,1-.878-.089A12.118,12.118,0,0,1,27.9,33.654a1.909,1.909,0,0,1,.5-2.514,2.341,2.341,0,0,1,2.62-.066,3.072,3.072,0,0,1,.544.331A18.579,18.579,0,0,1,36.8,38.25C37.3,39.487,36.934,39.935,35.42,39.965Zm-1.3-2.814a9.006,9.006,0,0,0-4-4.31C30.2,34.568,32.151,36.672,34.12,37.151Z" fill="inherit"/><path d="M35.2,28.264a2.307,2.307,0,0,1,1.318-2.4c.85-.441,1.53.024,2.113.554a4.555,4.555,0,0,1,1.21,1.471c.923,2.228,1.768,4.488,2.578,6.76a1.286,1.286,0,0,1-.234,1.135,1.226,1.226,0,0,1-1.123.041,12.946,12.946,0,0,1-5.587-6.476A5.514,5.514,0,0,1,35.2,28.264Zm3.557,2.377.445-.269-1.115-1.908-.508.308Q38.167,29.707,38.755,30.641Z" fill="inherit"/><path d="M55.471,82.37a4.818,4.818,0,0,1-1.152,4.463c-1.82,1.888-3.785,3.644-5.778,5.352a6.929,6.929,0,0,1-2.172.776c-.493-1.834.575-2.832,1.268-3.9A16.675,16.675,0,0,1,55.471,82.37Z" fill="inherit"/><path d="M24.871,68.117a16.86,16.86,0,0,1-2.337-.018c-1.7-.241-2.2-1.61-1.1-2.922a6.381,6.381,0,0,1,3.555-2.232,13.641,13.641,0,0,1,5.914-.267c1,.223,2.044.366,2.235,1.585a2.993,2.993,0,0,1-1.794,2.9A13.43,13.43,0,0,1,24.871,68.117Zm6.3-3.824c-4.349-.86-6.469-.256-7.739,2.109A6.449,6.449,0,0,0,31.172,64.293Z" fill="inherit"/><path d="M28.375,76.222a2.617,2.617,0,0,0,2.932-.525,25.6,25.6,0,0,0,2.912-3.29c.405-.53.616-1.177,1.434-.814a1.167,1.167,0,0,1,.237,1.971,44.81,44.81,0,0,1-4.019,3.791,4.822,4.822,0,0,1-4.276.7,1.5,1.5,0,0,1-1.23-2.222,5.191,5.191,0,0,1,.844-1.469,18.371,18.371,0,0,1,7.51-5.427c.617-.256,1.221-.2,1.379.455.067.277-.422.905-.779,1.03a16.744,16.744,0,0,0-5.58,3.448C28.781,74.719,28.792,74.732,28.375,76.222Z" fill="inherit"/><path d="M46.858,61.1a8.367,8.367,0,0,1,2.121.046A1.762,1.762,0,0,1,50.117,62.2a1.593,1.593,0,0,1-.785,1.262,30.512,30.512,0,0,1-9.418,3.307,5.4,5.4,0,0,1-1.9-.031c-1.6-.372-2.009-1.759-.789-2.839a9.413,9.413,0,0,1,2.546-1.513A17.219,17.219,0,0,1,46.858,61.1Zm-8.132,3.935c2.732.487,6.927-.885,8.064-2.536C43.363,62.244,40.431,63.121,38.726,65.038Z" fill="inherit"/><path d="M70.368,80.046c-.41,1.753-.752,3.347-1.165,4.923-.232.886-.626,1.73-.864,2.615a1.488,1.488,0,0,1-2.961-.214c-.344-3.178-.081-6.259,1.743-9a2.514,2.514,0,0,1,1.478-1c.759-.133,1.012.6,1.223,1.228C70,79.12,70.211,79.632,70.368,80.046Zm-2.294,1.319-.626-.121-.4,3.221.505.074Z" fill="inherit"/><path d="M102.815,84.393c3.11.791,5.77,1.853,7.7,4.236a.78.78,0,0,1,.114.178c.413.956,1.12,1.9.324,2.964-.557.747-1.46.84-2.891-.018-2-1.2-3.883-2.572-5.8-3.9a1.611,1.611,0,0,1-.661-.81,2.9,2.9,0,0,1-.1-1.747C101.725,84.845,102.439,84.633,102.815,84.393Zm1.634,2.316c1.4,1.283,2.606,2.86,4.96,3.492C108.363,87.657,106.369,87.236,104.449,86.709Z" fill="inherit"/><path d="M88.968,97.219a8.885,8.885,0,0,1,2.145,1.451c1.59,1.819,3.023,3.775,4.5,5.69a1.8,1.8,0,0,1,.452.951,2.362,2.362,0,0,1-.319,1.546c-.317.309-1.019.273-1.555.286a1.287,1.287,0,0,1-.752-.361c-2.5-2.147-4.819-4.455-6.148-7.553C86.8,98.088,87.437,97.126,88.968,97.219Zm3.842,6.8.332-.325c-1.33-2.649-1.773-3.143-3.758-3.769Z" fill="inherit"/><path d="M68.077,22.873a6.809,6.809,0,0,1-.617-2.248c.309-2.8.73-5.581,1.209-8.353a2.3,2.3,0,0,1,2.27-1.948c.237,1.2.5,2.333.677,3.479a13.975,13.975,0,0,1-.532,6.5C70.545,21.952,70.383,22.072,68.077,22.873Zm2-7.815a5.147,5.147,0,0,0-.938,3.8l.435.058Q69.821,16.986,70.073,15.058Z" fill="inherit"/><path d="M22.739,54.873c1.525.254,2.937.426,4.316.743a1.868,1.868,0,0,1,1.619,1.759,1.932,1.932,0,0,1-1.6,1.783,4.789,4.789,0,0,1-1.45.315c-2.339-.054-4.677-.163-7.015-.27a2.292,2.292,0,0,1-.824-.212c-.715-.324-1.654-.684-1.424-1.593A2.585,2.585,0,0,1,17.8,55.752,43.944,43.944,0,0,1,22.739,54.873Zm3.169,2.557a6.585,6.585,0,0,0-7.3.3A12.372,12.372,0,0,0,25.908,57.43Z" fill="inherit"/><path d="M114.219,85.014c-2.659.043-5-1.12-7.243-2.279-.724-.373-.88-1.909-1.2-2.943-.053-.172.359-.62.637-.726a2.53,2.53,0,0,1,1.254-.09,22.436,22.436,0,0,1,8.552,3.669,1.6,1.6,0,0,1,.526,1.426c-.125.4-.8.628-1.256.905a.913.913,0,0,1-.421.037C114.788,85.017,114.5,85.014,114.219,85.014Zm-6.341-4.085a12.705,12.705,0,0,0,5.674,2.026A12.341,12.341,0,0,0,107.878,80.929Z" fill="inherit"/><path d="M33.692,97.153a7.89,7.89,0,0,1,1.14-1.961,15.089,15.089,0,0,1,6.38-3.734,2.2,2.2,0,0,1,1.7.377c.182.131.011,1.123-.286,1.491-1.559,1.928-3.2,3.791-4.842,5.648a3.2,3.2,0,0,1-1.067.688C35.145,100.387,33.646,99.38,33.692,97.153Zm1.549.712a5.766,5.766,0,0,0,4.053-3.788C37.64,95,35.882,95.527,35.241,97.865Z" fill="inherit"/><path d="M30.888,50.266c-3.558-1.287-6.863-3.019-11.071-2.193.613.6.878,1.082,1.239,1.17,1.646.4,3.315.712,4.984,1,.405.07.876-.178,1.262-.075a1.474,1.474,0,0,1,.848.741c.07.152-.295.58-.546.779a1.289,1.289,0,0,1-.8.234c-2.866-.147-5.69-.477-8.079-2.292-1.348-1.024-1.153-2.561.453-3.09a5.489,5.489,0,0,1,2.712-.318c2.489.538,4.943,1.255,7.387,1.982A2,2,0,0,1,30.888,50.266Z" fill="inherit"/><path d="M44,78.66a4.312,4.312,0,0,1-.2.773A17.191,17.191,0,0,1,36.638,86.8a1.49,1.49,0,0,1-1.35-.026A1.515,1.515,0,0,1,35,85.438c1.02-3.242,2.753-5.94,6.089-7.222a5.077,5.077,0,0,1,2.078-.236C43.473,78,43.754,78.447,44,78.66Zm-3.274,1.7c-1.944.663-2.522,1.9-3.132,3.7A5.2,5.2,0,0,0,40.727,80.36Z" fill="inherit"/><path d="M52.489,27.645c-.634-.829-1.109-1.4-1.527-2.016a2.08,2.08,0,0,1-.509-1.112c.187-2.183.18-4.42,1.295-6.413.789-1.409,1.889-1.447,2.779-.12,1.588,2.37,1.1,7.238-.955,9.177A3.632,3.632,0,0,1,52.489,27.645Zm.366-3.3c.956-1.829.952-2.12,0-4.1Z" fill="inherit"/><path d="M62.619,48.538c-.322.562-.57,1.544-1.176,1.878a2.353,2.353,0,0,1-2.082-.486A11.805,11.805,0,0,1,55.6,44.353a2.589,2.589,0,0,1,1.6-3.124c1.07-.522,1.65-.281,2.793.789C61.817,43.727,61.867,46.087,62.619,48.538Zm-2.743-.681.617-.3a10.361,10.361,0,0,0-1.06-3.792A1.53,1.53,0,0,0,58.1,43.1.946.946,0,0,0,57.6,44.64C58.309,45.743,59.111,46.788,59.876,47.857Z" fill="inherit"/><path d="M79.286,15.105c1.164.033,1.745.717,1.488,1.646A8.837,8.837,0,0,1,79.68,19.04c-1.057,1.674-2.166,3.318-3.291,4.948a1.185,1.185,0,0,1-1.706.3c-.632-.353-1.3-.753-1.014-1.642a13.553,13.553,0,0,1,3.868-6.5A10.232,10.232,0,0,1,79.286,15.105Z" fill="inherit"/><path d="M115.072,76.09c-1.479-.184-3,.051-4.23-1.139-.695-.674-1.383-1.349-1.079-2.362.273-.906,1.113-1.206,2.015-1.316a8.658,8.658,0,0,1,6.85,1.565,2.468,2.468,0,0,1,.929,1.7c-.019.416-.8,1-1.335,1.145A21.449,21.449,0,0,1,115.072,76.09Zm-1.788-2.638c1.008.163,2,1.17,3.329.028A3.324,3.324,0,0,0,113.284,73.452Z" fill="inherit"/><path d="M80.2,100.1c.063-.444.088-.8.168-1.144.283-1.208,1.262-1.575,2.189-.765a4.109,4.109,0,0,1,.979,1.368c1.06,2.318,2.081,4.653,3.087,6.994a3,3,0,0,1,.248,1.236.95.95,0,0,1-1.455.919,4.07,4.07,0,0,1-1.632-1.3c-1.192-2.007-2.262-4.087-3.338-6.159A4.115,4.115,0,0,1,80.2,100.1Zm2.666,1.275-.39.268.89,1.566.33-.188Z" fill="inherit"/><path d="M74.473,79.058c.035-.6.029-1.381.147-2.147.06-.391.257-.971.54-1.08A1.858,1.858,0,0,0,76.467,73.9a1.088,1.088,0,0,1,.765-.764,1.188,1.188,0,0,1,.9.691,16.511,16.511,0,0,1-.243,9.23,2.408,2.408,0,0,1-1.641,1.391c-.992.067-1.294-.932-1.4-1.82C74.712,81.506,74.61,80.375,74.473,79.058Zm2.018.966.284,0,.095-1.954-.379-.013Z" fill="inherit"/><path d="M21.6,34.948a16.654,16.654,0,0,1,2.819,1.292c1.784,1.266,3.474,2.668,5.186,4.034a1.875,1.875,0,0,1,.657.813c.132.44.274,1.067.062,1.364a1.414,1.414,0,0,1-1.3.182c-1.568-.648-3.106-1.373-4.618-2.144-1.127-.575-2.2-1.256-3.288-1.908a3.812,3.812,0,0,1-.647-.548c-.6-.57-1.12-1.293-.59-2.042C20.231,35.5,21,35.294,21.6,34.948Zm.134,2.094a7.842,7.842,0,0,0,3.795,2.106C23.784,37.377,23.784,37.377,21.733,37.042Z" fill="inherit"/><path d="M76.7,111.455a13.166,13.166,0,0,1-1.559-2.146c-.684-1.482-1.2-3.043-1.768-4.575a4.366,4.366,0,0,1-.2-.829c-.236-1.471.161-2.581,1.061-3,.947-.443,2.084.084,2.963,1.491a10.7,10.7,0,0,1,1.329,7.206A2.139,2.139,0,0,1,76.7,111.455Zm.048-3.556a6.158,6.158,0,0,0-1.388-5.207A5.43,5.43,0,0,0,76.749,107.9Z" fill="inherit"/><path d="M50.887,45.983c-.826,1.6-1.621,2.015-2.95,1.158-2.083-1.344-4.08-2.832-6.025-4.371a2.394,2.394,0,0,1-.825-1.791c.094-.939,1.1-1,1.862-1.069,2.349-.211,4.519.142,6.221,2.025.807.895,1.793,1.628,2.6,2.521s.533,1.352-.923,1.563c-.913-1.08-1.8-2.18-2.742-3.236a4.106,4.106,0,0,0-5.033-1.132C45.268,43.88,47.687,45.622,50.887,45.983Z" fill="inherit"/><path d="M95.724,48.352a26.476,26.476,0,0,1-3.2-.779,1.285,1.285,0,0,1-.237-1.2,3.848,3.848,0,0,1,1.593-1.345c2.258-.837,4.559-1.56,6.861-2.273a2.876,2.876,0,0,1,1.468-.034A1.3,1.3,0,0,1,102.874,45a5.281,5.281,0,0,1-1.666,1.307C99.318,47.092,97.374,47.747,95.724,48.352Zm4.782-3.736c-2.74.212-3.692.537-4.644,1.648C97.436,45.607,99.193,46.079,100.506,44.616Z" fill="inherit"/><path d="M94.934,91.3c2.49-.082,7.562,4.269,7.846,6.385.183,1.361-.8,2.277-2.083,1.769a7.519,7.519,0,0,1-2-1.509c-1.52-1.35-2.157-3.524-4.2-4.433a1.633,1.633,0,0,1-.523-1.476C94.071,91.643,94.768,91.41,94.934,91.3ZM100.271,97l.329-.206a3.27,3.27,0,0,0-.425-.656,3.361,3.361,0,0,0-.683-.407l-.154.231Z" fill="inherit"/><path d="M104.826,51.178c.816-.018,1.626-.03,1.989.877s-.2,1.467-.844,1.973a14.624,14.624,0,0,1-6.187,2.647c-1.643.343-2.56-.044-2.773-.841a3.767,3.767,0,0,1,1.632-3.214,11.734,11.734,0,0,1,2.41-.814C102.3,51.536,103.567,51.381,104.826,51.178Zm-1.438,2.075c-1.451-.083-2.941-.284-4.14,1.41A5.528,5.528,0,0,0,103.388,53.253Z" fill="inherit"/><path d="M14.327,46.21a12.271,12.271,0,0,0-7.9-.66,6.079,6.079,0,0,0,3.813,1.2c.35.018.794-.149,1.032.011a2.04,2.04,0,0,1,.817,1.08c.048.19-.462.712-.779.773a8.364,8.364,0,0,1-6.99-1.827,1.187,1.187,0,0,1-.076-1.877,2.926,2.926,0,0,1,1.036-.723,10.534,10.534,0,0,1,8.493.3C14.443,44.773,15.054,45.227,14.327,46.21Z" fill="inherit"/><path d="M79.031,43.709c.775-.346,1.331-.611,1.9-.845,2.1-.861,4.188-1.737,6.3-2.554a6.961,6.961,0,0,1,2.246-.548,2.306,2.306,0,0,1,1.634.6c.535.612-.015,1.238-.536,1.6a10.21,10.21,0,0,1-2.91,1.68,57.533,57.533,0,0,1-6.46,1.2C80.212,44.985,80.2,44.875,79.031,43.709Z" fill="inherit"/><path d="M53.065,37.587c-.349-2.451-.636-4.771-3.295-6.006-.379,1.667.58,2.632,1.2,3.689A16.957,16.957,0,0,1,52.2,37c.174.418-.066,1.007-.12,1.52-.5-.095-1.311-.028-1.465-.312a50.462,50.462,0,0,1-2.957-6.133c-.463-1.229,1.014-2.525,2.342-2.242a4.152,4.152,0,0,1,1.327.64c2.062,1.34,2.926,3.44,3.411,5.7C54.994,37.381,54.718,37.547,53.065,37.587Z" fill="inherit"/><path d="M40.308,74.341c-.406-.233-1.112-.4-1.269-.789a2.041,2.041,0,0,1,.125-1.744,12.469,12.469,0,0,1,7.718-4.461,1.64,1.64,0,0,1,1.3.784c.256.489.424,1.465.153,1.718A19.33,19.33,0,0,1,40.308,74.341ZM46.446,69.3a6.126,6.126,0,0,0-5.071,2.82A9.427,9.427,0,0,0,46.446,69.3Z" fill="inherit"/><path d="M100.06,67.182c1.134.322,2.509.623,3.812,1.112a2.3,2.3,0,0,1,1.475,2.392c-.069,1.183-1.027,1.592-2.04,1.869a7.385,7.385,0,0,1-5.915-1.086c-.759-.464-1.086-1.724-1.441-2.685-.076-.206.515-.872.9-.993A27.814,27.814,0,0,1,100.06,67.182Zm3.11,3.141a4.014,4.014,0,0,0-4.922-1C99.13,70.938,101.249,71.369,103.17,70.323Z" fill="inherit"/><path d="M22.728,71.387c-2.366,1.023-5.59-.261-6.7,3.014a2.562,2.562,0,0,0,2.643-.159c.974-.42,1.865-1.036,2.849-1.425.35-.138.864.143,1.3.233-.115.427-.088,1.029-.366,1.252a9.285,9.285,0,0,1-6.545,2.078,1.8,1.8,0,0,1-1.686-2.7c.774-2.009,5.308-4.605,7.8-3.132C22.2,70.645,22.3,70.858,22.728,71.387Z" fill="inherit"/><path d="M97.454,25.169a5.232,5.232,0,0,1-2.271,3.576,27.4,27.4,0,0,1-4.689,2.4A1.384,1.384,0,0,1,89.2,30.9a1.327,1.327,0,0,1,.105-1.3c1.984-1.911,3.966-3.839,6.107-5.565C96.437,23.214,97.466,23.847,97.454,25.169Z" fill="inherit"/><path d="M43.716,48.592a10.459,10.459,0,0,0-1.563,1.162,2.518,2.518,0,0,1-2.9.7c-1.561-.467-3.148-.843-4.707-1.315a4.856,4.856,0,0,1-1.5-.761,1.4,1.4,0,0,1,.124-2.444,4.372,4.372,0,0,1,2.017-.563,17.139,17.139,0,0,1,7.721,2.1C43.224,47.621,43.377,48.1,43.716,48.592Zm-2.536-.026c-2.086-.955-4.13-2.148-6.6-1.429A7.3,7.3,0,0,0,41.18,48.566Z" fill="inherit"/><path d="M116.453,56.847c-1.828-.01-2.239-.7-1.508-2.009a5.27,5.27,0,0,1,3.282-2.558,25.7,25.7,0,0,1,5-.659,1.621,1.621,0,0,1,1.267.878c.135.4-.245,1.013-.482,1.491a1.612,1.612,0,0,1-.643.545A18.563,18.563,0,0,1,116.453,56.847Zm1.182-2.12a5.91,5.91,0,0,0,4.311-1.591C119.96,52.918,118.588,53.285,117.635,54.727Z" fill="inherit"/><path d="M82.59,83.206a2.157,2.157,0,0,1,.553.106,14.61,14.61,0,0,1,6.343,5.138c.288.43.134,1.157.185,1.747a5.983,5.983,0,0,1-1.765-.088,28.614,28.614,0,0,1-3.288-1.49,5.962,5.962,0,0,1-3.174-4.05C81.223,83.678,81.63,83.2,82.59,83.206Zm1.99,2.59c-.236,1.091.3,1.1,1.034.894Z" fill="inherit"/><path d="M90.557,53.487c-2.745-.649-5.432-1.261-8.1-1.947-.309-.079-.783-.684-.714-.841a2.655,2.655,0,0,1,.954-.94c.126-.089.405.057.615.067q3.711.168,7.422.327a14.144,14.144,0,0,1,2.328.146c1.15.248,1.44,1.352.466,2.01A14.573,14.573,0,0,1,90.557,53.487Z" fill="inherit"/><path d="M65.445,28.68a21.933,21.933,0,0,1-.933,2.141c-.986,1.71-2.045,3.378-3.031,5.088-.33.573-.76.958-1.337.6a1.4,1.4,0,0,1-.574-1.177c.767-2.488,1.566-4.974,2.534-7.388.23-.574,1.415-1.36,1.681-1.208A7.218,7.218,0,0,1,65.445,28.68Z" fill="inherit"/><path d="M37.85,12.243c.076,1.045.1,2.1.248,3.13.093.647.406,1.328-.526,1.527a1.1,1.1,0,0,1-1.321-1.083,32.12,32.12,0,0,1-.179-4.861c.043-.822-.125-2.008,1.125-2.267,1.163-.242,1.569.756,2.095,1.486a8.608,8.608,0,0,1,1.638,4.763,3.682,3.682,0,0,1-.247,1.454c-.106.271-.564.665-.707.609a1.37,1.37,0,0,1-.789-.783C39,15.323,39,14.39,38.848,13.485a7.4,7.4,0,0,0-.5-1.342Z" fill="inherit"/><path d="M90.458,77.853c.248-.376.436-.991.758-1.072a2.008,2.008,0,0,1,1.5.3c1.819,1.35,3.574,2.787,5.353,4.192.168.133.34.259.509.39.59.453,1.174.963.657,1.766a1.377,1.377,0,0,1-2.042.437c-1.6-.919-3.217-1.821-4.814-2.752A3.445,3.445,0,0,1,90.458,77.853Z" fill="inherit"/><path d="M62.384,84.393a11.68,11.68,0,0,1-.648,1.728c-1.208,2.082-2.465,4.135-3.7,6.2-.344.578-.748,1.152-1.5.837-.856-.36-.762-1.15-.472-1.825q1.464-3.413,3.032-6.779a2.2,2.2,0,0,1,.83-.945,2.223,2.223,0,0,1,1.478-.431C61.826,83.321,62.07,83.972,62.384,84.393Z" fill="inherit"/><path d="M10.164,37.655a5.006,5.006,0,0,1,1.126.89c.24.336.471.974.311,1.225-.2.314-.8.387-1.243.524-.106.033-.265-.081-.393-.143a8.151,8.151,0,0,1-3.847-4.1c-.624-1.354.012-2.271,1.411-1.965,2.657.581,5.11,1.674,6.529,4.244.045.081-.072.251-.146.479C12.5,38.922,11.644,37.542,10.164,37.655Z" fill="inherit"/><path d="M89.511,60.492c0-.73.005-1.279,0-1.828-.011-1.116.526-1.6,1.535-1.2,2.362.936,4.7,1.926,7.007,3a1.752,1.752,0,0,1,.729,1.321c.011.229-.7.649-1.122.711a5.136,5.136,0,0,1-2.1-.073C93.543,61.84,91.557,61.151,89.511,60.492Z" fill="inherit"/><path d="M28.335,13.086c.548.354,1.14.52,1.321.889.965,1.958,1.892,3.942,2.667,5.98.146.385-.334,1.213-.755,1.532-.252.19-1.082-.064-1.425-.372a29.921,29.921,0,0,1-2.967-3.044,3.125,3.125,0,0,1-.145-3.938A7.547,7.547,0,0,1,28.335,13.086ZM29.7,17.66l-.942-2.091-.451.193C28.181,16.63,28.512,17.323,29.7,17.66Z" fill="inherit"/><path d="M25.467,90.707c2.618.084,3.43-2.488,5.393-2.709a1.143,1.143,0,0,1-.2,1.8,38.071,38.071,0,0,1-4.271,2.668,1.719,1.719,0,0,1-2.3-.477,2.756,2.756,0,0,1-.191-2.162A9.187,9.187,0,0,1,29.155,84.6c.344-.137.851.133,1.509.258C29,86.984,26.141,87.709,25.467,90.707Z" fill="inherit"/><path d="M13.494,25.347a9.42,9.42,0,0,1,6.019,2.791,1.156,1.156,0,0,1,.181,1.7c-.475.679-.746,1.787-1.789,1.5-2.1-.568-4.341-.815-6.1-2.3a4.7,4.7,0,0,1-.853-.939c-.741-1.1-.543-1.866.667-2.334A11.357,11.357,0,0,1,13.494,25.347Zm4.739,3.929c-2.373-2.54-4.29-3.065-5.872-1.747A6.185,6.185,0,0,0,18.233,29.276Z" fill="inherit"/><path d="M52.344,95.281a1.273,1.273,0,0,1,1.442,1.6,12.2,12.2,0,0,1-4.223,6.2,1.055,1.055,0,0,1-1.791-.642c-.536-2.089,2.048-6.48,4.159-7.066C52.067,95.335,52.206,95.311,52.344,95.281Zm-2.514,4.6c.621-.352.835-.409.936-.549a1.939,1.939,0,0,0,.192-.593l-.3-.125Z" fill="inherit"/><path d="M99.7,33.489a5.967,5.967,0,0,1-.927,1.565,21.641,21.641,0,0,1-3.428,2.836,3.132,3.132,0,0,1-2.188.07,1.138,1.138,0,0,1-.708-1.718,8.456,8.456,0,0,1,5.154-4.495A1.6,1.6,0,0,1,99.7,33.489Zm-4.753,1.656c.937.322,1.435.009,1.443-1.012Z" fill="inherit"/><path d="M16.182,85.338c-.265-.192-.85-.416-1.051-.827a1.413,1.413,0,0,1,.295-1.3,9.917,9.917,0,0,1,2.544-1.82,24.508,24.508,0,0,1,4.223-1.337,1.567,1.567,0,0,1,1.4.448c.166.363-.159,1.005-.383,1.473a2.17,2.17,0,0,1-.747.737A14.3,14.3,0,0,1,16.182,85.338Z" fill="inherit"/><path d="M113.613,33.228a1.65,1.65,0,0,1,1.735,2.242,3.241,3.241,0,0,1-.939,1.62,36.672,36.672,0,0,1-3.763,2.349,1.267,1.267,0,0,1-1.861-.411,2.947,2.947,0,0,1-.415-1.919C108.793,35.523,112.026,33.248,113.613,33.228Zm-.467,2.424-.281-.379c-.858.277-1.813.422-1.775,1.912Z" fill="inherit"/><path d="M83.114,6.217c-.09,1.509-.362,2.921-1.833,3.614-.939.441-2.477-.876-3.218-2.581a11.219,11.219,0,0,1-.53-1.385c-.45-1.58-.017-2.766,1.15-3.235a3.392,3.392,0,0,1,3.985,1.545A11.807,11.807,0,0,1,83.114,6.217ZM78.988,4.065c.466,1.278.223,2.59,1.5,3.27C81.593,5.234,81.262,4.389,78.988,4.065Z" fill="inherit"/><path d="M50.1,7.736a15.079,15.079,0,0,1-.347,2.565c-.332,1.023-1.095,1.211-2,.646-1.742-1.086-2.526-5.112-1.337-6.862a1.667,1.667,0,0,1,3.026.374A17.944,17.944,0,0,1,50.1,7.736Z" fill="inherit"/><path d="M103.3,60.656c-.505-1.086-.194-1.854.988-2.049a29.562,29.562,0,0,1,4.415-.458,1.711,1.711,0,0,1,1.836,1.479,1.729,1.729,0,0,1-1.3,1.967,45.356,45.356,0,0,1-5.823,1.108,1.724,1.724,0,0,1-1.36-.986c-.2-.837.694-.886,1.281-1.087a6.42,6.42,0,0,0,5.072-.641c-1.287-.874-2.217-.376-3.176.03C104.611,60.282,103.947,60.447,103.3,60.656Z" fill="inherit"/><path d="M56.5,11.12c.036-1.107.023-2.046-1.046-2.615a1.609,1.609,0,0,1-.563-1.3,27.085,27.085,0,0,1,.586-4.172,1.593,1.593,0,0,1,1.139-.991,1.551,1.551,0,0,1,1.247.852,59.171,59.171,0,0,1,.772,6.469C58.7,10.463,58.02,11.213,56.5,11.12Z" fill="inherit"/><path d="M46.963,25.057a12.035,12.035,0,0,1-.67,2.15c-.643,1.189-1.992,1.248-2.422.021-.666-1.905-1.627-3.785-1.281-5.941.126-.783.4-1.375,1.189-1.562a1.4,1.4,0,0,1,1.646,1.033C46.006,22.184,46.471,23.658,46.963,25.057Z" fill="inherit"/><path d="M120.671,62.567a9.713,9.713,0,0,1,2.53.247,2.394,2.394,0,0,1,1.361,1.406c.1.383-.515,1.252-.985,1.422a10.311,10.311,0,0,1-6.242.625,2.415,2.415,0,0,1-1.43-1.356c-.3-.895.5-1.476,1.236-1.718a35.493,35.493,0,0,1,3.489-.8Zm.426,1.9c-.777-.377-1.543-.7-2.023.389Z" fill="inherit"/><path d="M102.617,22.365c-1.046.09-1.833-.846-1.435-1.656a9.036,9.036,0,0,1,1.577-2.235c1.125-1.173,2.345-2.258,3.553-3.35a2.771,2.771,0,0,1,1.072-.625c.766-.209,1.257.263,1.124,1.045a2.06,2.06,0,0,1-.383.974q-2.34,2.717-4.747,5.374A2.8,2.8,0,0,1,102.617,22.365Z" fill="inherit"/><path d="M40.1,56.822c-.16,1.1-.76,1.849-1.636,1.894a49.445,49.445,0,0,1-5.925-.1,1.639,1.639,0,0,1-1.624-1.456c-.1-.969.722-1.318,1.4-1.681C34.586,54.258,37.636,54.779,40.1,56.822Zm-7.03.248c1.449.405,2.527.727,3.706.02C35.214,56.017,35.109,56.014,33.069,57.07Z" fill="inherit"/><path d="M64.522,15.554c1.658,4.042-.42,6.21-2.634,7.92-.416.322-1.137.248-1.717.357a5.479,5.479,0,0,1,0-1.757c.474-1.4,1.081-2.76,1.667-4.123C62.338,16.78,62.859,15.6,64.522,15.554Z" fill="inherit"/><path d="M57.95,98.412c-.1.829-.186,1.418-.249,2.009a6.955,6.955,0,0,0-.116,1.693c.049.339.407.848.678.884a1.142,1.142,0,0,0,.954-.6,39.547,39.547,0,0,0,.436-3.981c.034-.485-.215-1.008-.115-1.465a1.182,1.182,0,0,1,.791-.787c.3-.017.879.39.908.658.274,2.544.657,5.137-1.092,7.377a2.247,2.247,0,0,1-3.642-.087C55.6,102.7,56.211,99.865,57.95,98.412Z" fill="inherit"/><path d="M24.713,25.54a4.322,4.322,0,0,1-3.228-1.377,21.313,21.313,0,0,1-2.425-2.925,1.545,1.545,0,0,1-.015-1.328,1.237,1.237,0,0,1,1.089-.351,8.686,8.686,0,0,1,5.79,3.938C26.689,24.757,26.169,25.524,24.713,25.54Zm-1.658-2.8L22.874,23l.816.546.177-.261Z" fill="inherit"/><path d="M17.463,64.735l-3.641.984,2.038.578c.316.864-.095,1.368-.671,1.416a28.723,28.723,0,0,1-4.87.086,2.081,2.081,0,0,1-1.336-1.371,1.8,1.8,0,0,1,.878-1.489A11.606,11.606,0,0,1,16.9,63.868c.185.036.34.224.509.342Z" fill="inherit"/><path d="M77.965,38.021a3.707,3.707,0,0,1-1.1-.947c-.114-.2.306-.921.651-1.127,1.749-1.05,3.55-2.013,5.338-3,1.377-.757,2.26-.8,2.675-.148.429.674.1,1.475-1.215,2.387-1.491,1.03-2.787,2.45-4.758,2.626C79.134,37.854,78.716,37.923,77.965,38.021Z" fill="inherit"/><path d="M50.538,107.81a5.834,5.834,0,0,1-3.385,4.7,1.9,1.9,0,0,1-2.353-.16c-.621-.674-.3-1.457.1-2.158a17.353,17.353,0,0,1,1.09-1.809C47.314,106.6,48.444,106.457,50.538,107.81Z" fill="inherit"/><path d="M100.734,10.785a8.339,8.339,0,0,1-3.062,5.062,7.093,7.093,0,0,1-1.567,1.04,1.077,1.077,0,0,1-.928.042.985.985,0,0,1-.262-.908c.855-1.862,1.735-3.715,2.708-5.516a2.841,2.841,0,0,1,1.3-1.048C100.005,8.959,100.749,9.493,100.734,10.785Z" fill="inherit"/><path d="M87.208,12.329c.4-2.215.708-4.3,1.179-6.344A2,2,0,0,1,89.549,4.7c.791-.207,1.331.454,1.457,1.21a26.6,26.6,0,0,1,.326,3.37,1.528,1.528,0,0,1-.4,1.168c-.581.384-1.5.385-1.908.863C88.591,11.819,88.577,12.664,87.208,12.329Z" fill="inherit"/><path d="M62.7,90.348c.434.146.638.151.687.241q2.136,3.891,4.237,7.8a2.221,2.221,0,0,1,.369,1.195,1.655,1.655,0,0,1-.656,1.136.889.889,0,0,1-1.328-.637,18.067,18.067,0,0,0-3.389-6.31C61.883,92.756,62.189,91.553,62.7,90.348Z" fill="inherit"/><path d="M9.625,57.926c-1.6-.505-3.216-.95-4.773-1.555-.412-.16-.981-1.013-.874-1.2a2.2,2.2,0,0,1,1.37-1.035,6.985,6.985,0,0,1,2.5.257,24.232,24.232,0,0,1,3.408,1.114c.379.157.924.823.841,1.006a2.443,2.443,0,0,1-1.13,1.016,3.617,3.617,0,0,1-1.25.137Z" fill="inherit"/><path d="M71.333,89.917c.63-1.066,1.307-1.166,1.993-.758,1.642.975,3.244,2.018,4.859,3.038a1.4,1.4,0,0,1,.318.282c.519.618,1.02,1.274.453,2.092a1.6,1.6,0,0,1-2.282-.049C74.891,93.028,73.147,91.486,71.333,89.917Z" fill="inherit"/><path d="M113.292,50.14c0-.751-.232-1.5.044-1.924a26.048,26.048,0,0,1,2.885-3.643,2.542,2.542,0,0,1,1.733-.55,1.152,1.152,0,0,1,1,1.813,2.91,2.91,0,0,1-.619.858c-1.2,1.089-2.4,2.178-3.664,3.2C114.4,50.11,113.9,50.042,113.292,50.14Z" fill="inherit"/><path d="M106.978,30.814c-.481-2.477,1.169-5.363,2.973-5.894,1.3-.382,2.177.328,1.833,1.626a4.213,4.213,0,0,1-1.223,2.116A28.807,28.807,0,0,1,106.978,30.814Z" fill="inherit"/><path d="M16.4,92.69c-.815-.066-1.808-.172-2.146-1.221a2.022,2.022,0,0,1,1.075-2.352,9.534,9.534,0,0,1,2.934-1.155c.907-.191,1.285.375,1.083,1.264-.121.534-.216,1.074-.34,1.607A2.318,2.318,0,0,1,16.4,92.69Z" fill="inherit"/><path d="M66.087,3.469a25.549,25.549,0,0,1,1.122-2.9A1.4,1.4,0,0,1,68.4.009c.357.066.9.631.885.955a47,47,0,0,1-.518,5.188c-.052.339-.63.725-1.032.825-.2.049-.663-.461-.8-.8C66.6,5.343,66.389,4.461,66.087,3.469Z" fill="inherit"/><path d="M64.508,108.473a11.586,11.586,0,0,1,.245-1.581,1.89,1.89,0,0,1,3.632,1.048,15.047,15.047,0,0,1-1.375,2.849,1.559,1.559,0,0,1-1.173.586,1.249,1.249,0,0,1-.871-.742A15.477,15.477,0,0,1,64.508,108.473Z" fill="inherit"/><path d="M35.456,109.4a7.662,7.662,0,0,1-.571-1.4c-.042-.207.217-.509.4-.72,1.05-1.234,2.075-2.493,3.2-3.657a3.379,3.379,0,0,1,1.617-.847.989.989,0,0,1,.848,1.677c-1.45,1.531-2.958,3.007-4.467,4.479A4.275,4.275,0,0,1,35.456,109.4Z" fill="inherit"/><path d="M10.992,77.851a5.047,5.047,0,0,1-5.838,1.294,1.133,1.133,0,0,1-.264-1.928A4.047,4.047,0,0,1,10.992,77.851Z" fill="inherit"/><path d="M1.83,62.4c-.171,1.563.715,1.98,1.646,2.363.549.227,1.488.262,1.1,1.135a1.689,1.689,0,0,1-1.611.4A8.914,8.914,0,0,1,.338,64.025,2.151,2.151,0,0,1,.724,61.29a2.761,2.761,0,0,1,2.945-.574,1.523,1.523,0,0,1,.741,1.09c0,.671-.51.929-1.2.77C2.823,62.487,2.418,62.47,1.83,62.4Z" fill="inherit"/><path d="M29.472,97.307c-.736,1.844-2.358,2.681-4.04,3.3-.962.357-1.561-.453-1.295-1.508C24.775,96.568,27.045,95.741,29.472,97.307Z" fill="inherit"/><path d="M55.149,112.557a26.751,26.751,0,0,1,.953-3.33,1.571,1.571,0,0,1,2.017-.739c.9.253.916,1.007.709,1.734a19.737,19.737,0,0,1-.9,2.6c-.345.784-1.036,1.305-1.872.917C55.6,113.53,55.362,112.853,55.149,112.557Z" fill="inherit"/></g></svg>