<?xml version="1.0" encoding="UTF-8" standalone="no"?><svg xmlns="http://www.w3.org/2000/svg" xmlns:xlink="http://www.w3.org/1999/xlink" fill="#000000" height="134" preserveAspectRatio="xMidYMid meet" version="1" viewBox="-0.4 -4.0 120.2 134.0" width="120.2" zoomAndPan="magnify"><g id="change1_1"><path d="M114.1,82.4c-8.6-9-16.9-18.2-25.1-27.6c3.8-5.1,7.8-9.9,12.1-14.6c2.1-2.3,4.4-6.1,3-9.3 c-1.4-3-5.1-3.2-7.8-2c-7,3.2-14.1,6.4-21.1,9.6c-9.9-12-19.5-24.2-28.7-36.7c-4.3-5.8-15.2,4.4-14,9.7c3.1,14.1,6.2,28.4,8.4,42.8 c-4.5,2.2-9,4.3-13.6,5.9c-6.6,2.4-13.6,2.8-20,6C3.6,68-0.4,71.9,0,76.4c0,0,0,0.1,0,0.1c0,2.2,1.2,4,4.4,4.3 c13,1.3,26.2,2.4,39.4,4c0.4,11.7-0.2,23.4-2.2,35.1c-1.8,10.1,12.4,5.6,14.5-0.9c3.3-10.6,7.5-20.8,12.4-30.7 c11.6,2,23.1,4.4,34.2,7.9C108.9,98,119.8,88.4,114.1,82.4z M58.7,70.5c-0.2-3.3-0.5-6.5-0.9-9.8c3-1.4,6.1-2.8,9.1-4.1 c1,1.2,2.1,2.4,3.1,3.7c-2.4,3.6-4.6,7.2-6.8,10.9C61.7,70.8,60.2,70.6,58.7,70.5z M56,47.1c-0.2-1.6-0.5-3.2-0.8-4.8 c1,1.3,2,2.5,3,3.8C57.5,46.4,56.7,46.8,56,47.1z M41.1,68.4c0.5-0.2,1-0.5,1.5-0.7c0,0.3,0.1,0.6,0.1,0.9 C42.1,68.5,41.6,68.5,41.1,68.4z M78.5,70.1c1.2,1.3,2.3,2.7,3.5,4c-1.8-0.3-3.6-0.6-5.4-0.9C77.3,72.1,77.9,71.1,78.5,70.1z" fill="#35e13b"/></g></svg>