<?xml version="1.0" encoding="UTF-8" standalone="no"?><!-- Generator: Adobe Illustrator 23.0.3, SVG Export Plug-In . SVG Version: 6.00 Build 0)  --><svg xmlns="http://www.w3.org/2000/svg" enable-background="new 0 0 288.73 228.4" fill="#000000" id="Layer_1" version="1.1" viewBox="0 0 288.73 228.4" x="0px" xml:space="preserve" y="0px">
<g fill="#00bf63" id="change1_1">
	<path d="m267.29 24.38c-1.89 3.31-4.73 4.51-7.27 5.93-5.78 3.24-11.11 7.13-16.53 10.89-14.61 10.13-28.87 20.76-43.45 30.95-17.18 12.01-34.72 23.46-52.32 34.83-11.19 7.23-22.26 14.66-32.88 22.68-11.66 8.81-23.66 17.23-34.23 27.4-10 9.62-20.31 18.92-29.64 29.22-2.94 3.24-6.07 6.3-9.11 9.45-3.88 4.02-7.19 8.54-10.96 12.66-3.76 4.12-7.01 8.66-11.04 12.57-2.05 1.99-3.83 4.29-6.05 6.15-0.62 0.52-1.11 1.29-2.21 1.29-0.46-1.18 0.16-2.11 0.77-2.99 2.34-3.36 4.6-6.78 7.08-10.02 3.78-4.95 7.38-10.05 11.48-14.76 6.77-7.8 13.43-15.69 20.23-23.46 7.54-8.62 15.47-16.87 23.83-24.71 8.56-8.04 17.48-15.64 27.02-22.49 6.86-4.93 13.68-9.93 20.66-14.69 8.99-6.14 18.08-12.13 27.19-18.09 6.24-4.08 12.62-7.93 18.87-11.98 6.4-4.15 12.73-8.4 19.08-12.63 4.96-3.3 9.93-6.59 14.84-9.97 3.37-2.32 6.7-4.71 9.96-7.18 4.97-3.76 10.33-6.94 15.49-10.43 5.56-3.76 11.38-7.09 17.3-10.25 5.74-3.07 11.31-6.45 17.2-9.25 1.41-0.69 2.86-0.57 4.69-1.12z" fill="inherit"/>
	<path d="m288.73 41.47c-0.89 2.5-2.61 3.94-4.36 5.3-2.43 1.88-4.96 3.63-7.41 5.48-5.58 4.2-11.03 8.57-16.74 12.58-4.72 3.32-9.54 6.51-14.28 9.81-6.71 4.68-13.31 9.49-19.76 14.54-9.32 7.29-18.72 14.48-28.1 21.69-7.97 6.12-16.1 12.02-23.87 18.39-7.92 6.49-15.67 13.19-23.33 19.99-8.14 7.24-16.3 14.47-24.24 21.94-6.11 5.74-12.05 11.66-17.91 17.66-5.91 6.04-11.19 12.66-17.16 18.63-3.81 3.81-7.13 8.05-11.08 11.71-1.63 1.51-3.19 3.11-4.77 4.69-0.67 0.67-1.43 1.19-2.29 1.57-0.54 0.23-1.07 0.3-1.5-0.26-0.37-0.48-0.54-0.97-0.19-1.53 0.35-0.55 0.62-1.16 1.04-1.64 5.11-5.92 10.23-11.83 15.36-17.73 4.09-4.7 8.14-9.44 12.29-14.08 4.45-4.98 8.98-9.89 13.51-14.81 7.38-8.03 15.39-15.41 23.62-22.56 6.68-5.81 13.26-11.72 20.04-17.42 4.27-3.59 8.6-7.12 12.8-10.76 5.29-4.58 10.97-8.61 16.43-12.94 3.28-2.6 6.72-5.01 9.92-7.7 7.13-5.99 14.59-11.54 21.95-17.23 4.04-3.12 8.27-6 12.46-8.93 5.73-3.99 11.47-7.96 17.26-11.85 6.18-4.15 12.41-8.22 18.73-12.15 4.49-2.8 8.78-5.92 13.18-8.86 3.3-2.22 5.47-3.12 8.4-3.53z" fill="inherit"/>
	<path d="m9.69 196.15c0.96-2.76 2.69-4.96 4.44-7.09 3.3-4.04 6.8-7.91 10.23-11.84 3.3-3.79 6.5-7.68 9.97-11.31 4.3-4.5 8.39-9.2 12.93-13.5 3.71-3.51 7.23-7.25 11.14-10.52 6.58-5.49 13.36-10.73 20.02-16.12 9.06-7.33 18.58-14.03 28.07-20.78 7.75-5.5 15.95-10.3 23.97-15.36 8.8-5.56 17.98-10.52 26.74-16.17 8.05-5.19 16.1-10.4 24.22-15.46 6.23-3.89 12.3-8.03 18.6-11.82 4.84-2.91 9.47-6.22 14.18-9.37 5.19-3.47 10.64-6.53 15.97-9.77 3.5-2.13 6.99-4.29 10.45-6.49 2.92-1.86 6.07-3.27 9.19-4.73 0.96-0.45 2.07-0.59 3.6-1-1.17 2.23-2.69 3.3-4.15 4.39-5.45 4.07-11.21 7.7-16.79 11.58-8.34 5.8-16.26 12.18-24.74 17.79-4.66 3.08-9.37 6.08-14.08 9.08-5.58 3.55-11.21 7.01-16.75 10.61-5.39 3.51-10.95 6.73-16.41 10.11-12.75 7.9-25.89 15.13-38.73 22.88-6.22 3.76-12.13 8-18.03 12.23-11.51 8.25-22.9 16.65-33.76 25.74-3.71 3.11-7.31 6.39-11.21 9.24-4.77 3.48-8.81 7.69-12.97 11.81-2.07 2.05-4.73 3.59-6.45 5.87-1.81 2.4-3.98 4.37-6 6.52-0.57 0.61-0.91 1.4-1.93 1.39-0.39 0-0.68 0.31-0.8 0.69-0.81 2.62-2.86 4.2-4.88 5.82-0.28 0.23-0.57 0.48-0.77 0.78-3.03 4.53-7.26 7.98-10.88 11.98-1.16 1.3-2.6 2.32-4.39 2.82z" fill="inherit"/>
	<path d="m51.26 215.71c1.83-3.41 4.09-6.53 6.41-9.62 3.3-4.38 6.46-8.87 10.1-13 3.31-3.75 6.55-7.56 9.93-11.26 3.64-3.98 7.38-7.86 11.15-11.71 5.14-5.27 10.65-10.16 16.18-15.01 6.64-5.83 13.42-11.51 20.18-17.22 6.89-5.81 14.08-11.24 21.23-16.72 8.28-6.33 16.61-12.6 24.9-18.92 6.88-5.25 13.71-10.57 20.62-15.79 8.97-6.78 18.18-13.25 27.25-19.89 9.77-7.16 19.97-13.68 30.02-20.44 8.87-5.97 17.96-11.6 26.99-17.32 1.96-1.24 4.1-2.2 6.19-3.22 0.53-0.26 1.29-0.7 1.73 0.09 0.39 0.7-0.17 1.25-0.67 1.66-2.8 2.3-5.55 4.66-8.43 6.84-12.48 9.45-25.46 18.19-38.19 27.29-14.24 10.18-28.53 20.3-42.6 30.71-8.98 6.65-17.68 13.68-26.72 20.26-10.76 7.83-21.5 15.69-32.22 23.58-2.55 1.88-4.97 3.92-7.46 5.87-0.58 0.46-1.15 1.09-1.82 1.25-1.71 0.42-2.36 1.98-3.55 2.94-2.32 1.87-4.64 3.74-6.99 5.57-5.75 4.44-10.97 9.51-16.58 14.1-5.42 4.43-10.3 9.43-15.41 14.18-2.47 2.3-4.84 4.79-6.92 7.54-1.72 2.29-3.75 4.41-5.93 6.28-2.2 1.89-3.63 4.37-5.62 6.41-1.07 1.1-1.92 2.44-3.17 3.43-1.94 1.52-3.01 3.75-4.53 5.62-1.86 2.3-3.4 4.87-6.07 6.5z" fill="inherit"/>
	<path d="m242.92 0.9c-0.19 0.79-0.88 1.15-1.47 1.58-5.46 4-11.17 7.65-16.55 11.77-4.73 3.61-9.62 7.02-14.48 10.46-7.68 5.43-15.08 11.22-22.65 16.8-6.44 4.74-12.95 9.39-19.5 13.98-4.1 2.88-8.29 5.65-12.36 8.59-5.72 4.14-11.73 7.87-17.53 11.9-4.82 3.34-9.8 6.43-14.72 9.6-7.27 4.7-14.8 8.98-22.23 13.4-4.88 2.9-9.76 5.84-14.47 8.98-6.09 4.07-12.16 8.21-17.99 12.67-4.88 3.73-9.54 7.72-14.37 11.5-7.33 5.73-14.5 11.65-21.96 17.22-5.52 4.12-10.92 8.41-16.48 12.47-3.91 2.85-7.96 5.5-11.98 8.2-0.76 0.51-1.66 0.82-2.49 1.25-0.5 0.25-1.02 0.65-1.49 0.07-0.44-0.55-0.05-1.11 0.28-1.51 2.17-2.67 4.12-5.53 6.83-7.72 9.91-8.01 19.75-16.11 29.89-23.82 5.63-4.28 11.05-8.84 16.68-13.12 4.51-3.43 9.12-6.74 13.81-9.92 6.31-4.28 12.99-7.96 19.34-12.13 8.8-5.79 18.19-10.53 27.11-16.11 7.02-4.4 13.97-8.92 20.92-13.43 8.82-5.73 17.42-11.81 26.12-17.73 7.23-4.92 14.18-10.23 21.3-15.31 7.2-5.14 14.34-10.35 21.25-15.87 6.19-4.95 12.61-9.57 19.22-13.9 4.66-3.05 9.64-5.61 14.51-8.33 1.37-0.77 2.5-1.97 4.1-2.34 0.71-0.19 1.29-0.17 1.36 0.8z" fill="inherit"/>
</g>
</svg>