<?xml version="1.0" encoding="UTF-8" standalone="no"?><svg xmlns="http://www.w3.org/2000/svg" xmlns:xlink="http://www.w3.org/1999/xlink" fill="#000000" height="481.6" preserveAspectRatio="xMidYMid meet" version="1" viewBox="-0.8 -0.5 352.0 481.6" width="352" zoomAndPan="magnify"><g id="change1_1"><path d="M93.1,315.2c-1-0.6-2.4-1-2.8-1.9c-6-11.6-12.8-22.8-20.4-33.5c-7.8-10.9-16.3-20.7-27.6-27.9 c-2.4-1.5-6.4-1.5-6.7,2.4c-0.4,5-1.6,9.9,0.5,15.2c3.3,8.4,4.8,17.5,7.8,26.1c4,11.4,8,22.9,13.1,33.9c2.6,5.6,7.8,10,11.5,15.1 c2.5,3.4,5.6,7.5,0.3,11c-4.2,2.8-9,1.2-12.1-2c-6.7-7.2-12.8-15-19.1-22.6c-1.8-2.2-4.2-4.1-5.3-6.6s-3.8-6.1,0.3-8.3 c-3.4-7.9-7-15.7-10.2-23.6c-2.6-6.1-4.9-12.3-6.8-18.6c-1.1-3.8-1.9-8.2-1-11.9c1.8-8,3.8-16.2,7.5-23.5c3.9-7.8,14-10.9,22.2-7.4 c5.8,2.5,10.9,6.7,16.2,10.3c2.3,1.4,4.4,3,6.3,4.8c4.1,4.1,7.9,8.4,11.5,12.9c7.3,9.6,13.4,20.2,21.6,29c4.1,4.3,6.8,8.5,7.8,13.8 c0.7,4,0.7,8.9-1,12.4C103.2,321.3,99.7,320.6,93.1,315.2l1.9-1.1l-0.7-0.7L93.1,315.2z M99.6,317.3l0.2-0.3h-0.4L99.6,317.3z M173.3,316.8c9.6,10.6,18.1,21.9,22.3,36c1.6,5.4,4.9,10.4,7.9,15.3c2,3.3,5.3,5.7,9.4,3.7c5.9-2.8,8.8-8.2,6.5-13.1 c-4.2-9-4-20.1-12.8-26.9c2.5-4.6-3.2-3.5-3.9-5.6c-2.5-7.8-8-13.4-12.9-19.7c-5.7-7.3-13.6-10.3-20.2-15.7 c-4.6-3.8-9.9-2.8-13.2,1.9c-5.3,7.5-11.2,14.5-10.6,24.9c1,14.7-0.1,29.6,1.7,44.2c1.6,13.2,5.5,26.2,8.7,39.2 c0.6,2.9,2.1,5.5,4.2,7.6c2.1,1.8,4.8,2.7,7.6,2.6c1.8-0.1,4.4-2.5,4.9-4.2c0.7-3.4,0.7-6.9,0-10.3c-2-10.8-5.8-21.4-6.5-32.2 c-1.1-16.5-0.3-33.2-0.3-51.2C169.4,314.7,172,315.2,173.3,316.8L173.3,316.8z M279.3,335.3c0.9-3.1,2.4-6,4.4-8.6 c1.2-1.5,2.9-2.5,4.7-2.7c3.8-0.2,13.7,8.2,14.7,12.1c2.7,10.3,4.8,20.8,8.1,30.8c2.2,6.6,1.1,14.1,6.5,19.9c1.8,1.9,0.9,6,2.3,8.6 c1.9,3.6,2.6,9.3,8.4,8.8c7.2-0.7,11.8-5.6,11.8-12.3c0-3.9-0.7-7.7-1.9-11.4c-3.3-9.8-7.4-19.3-10.4-29.2c-1.5-5-1.2-10.2-3.4-15.4 c-5.7-13.7-13.9-23.9-28.6-28.1c-9.6-2.8-26.5,1-28.7,14.9c-0.8,4.6-2.1,9-3.7,13.4c-7.1,20.2-8.5,40.5-2.7,61.3 c1.4,4.9,6.9,9.6,10.5,8.2c5.1-2,4.7-6.7,4.2-11c-1-8.9-2.3-17.8-3.5-26.6C274.4,356.7,276.6,346,279.3,335.3L279.3,335.3z M104.6,460.4c1,2,1.1,4.5,1.5,6.8l0,0l6.4,0.7v0l5.4-0.5c6.7-6,7.9-11,5.6-17c-3.5-9-6.8-18-10.1-27.1c-1-2.8-1.3-5.9-2.3-8.7 c-2.6-7.6-7.5-13.4-13.2-19c-7.7-7.5-19.4-10.9-29.1-6.7c-2.6,1.1-5.6,2.6-6.9,4.8c-6.2,10.3-12.7,20.4-14.2,32.9 c-0.8,6.6,1.2,13.7-3.4,20c-1.2,1.6,2.5,6.2,2.2,9.4c-0.6,6.8,3,12.1,4.9,18.1c2.2,7,6.7,4.6,10.8,3.7c4.6-1.1,4.8-4.9,4.6-9 c-0.3-5.6-0.3-11.2,0-16.9c0.6-9.2,1.6-18.3,2.5-27.8l-4.1-0.5l1.6,0.4c1.8-2.4,3.5-4.9,5.5-7.1c2.7-3,5.6-8,8.5-8.1 c5.1-0.1,7.1,5.2,7.8,10.2c0,0.2,0,0.4,0,0.6c1.2,4.3,2.2,8.6,3.6,12.9c2.7,8.4,5.6,16.7,8.3,25.1 C102,458.5,103.9,459.1,104.6,460.4z M24.2,170.3l2.9-2.4l3.9,2.8c5.2-3.6,3-9.2,3.1-14.3l-1.3-4.7l-3.3-3.7 c-1.4-5.1-1.8-10.9-4.6-15.2c-3.1-4.7-5.5-8.4-1.7-13.6c0.6-0.9-0.1-2.7,0-4c0.1-3.5,0.3-7.1,0.5-11.7c2.5,1.5,4.2,2.1,5.4,3.2 c5.7,5.7,11.6,11.3,16.7,17.6s9.1,13.4,13.7,20.1c1.9,2.8,13,4.3,16.9,1.6c3.5-2.4,5.6-6.5,3.7-11c-1.6-3.6-4.2-6.6-6-10.1 c-4.9-9.2-11.5-17.4-19.5-24.2c-4.6-4-10.2-7-15.2-10.6c-5.8-4.2-11.9-7.5-19.3-5.1c-3.9,1.3-8.2,2.6-11.1,5.3 c-6.5,6.1-5.5,15.5-8.6,23.2c-1.2,3,0.1,7.2,0.8,10.8c2.2,11.8,3.2,24,10.6,34.1c3.3,4.5,5.7,10.1,11.8,11.9L24.2,170.3z M294.5,265.5l3.6-0.1l4.6-4.4c0.3-2.4,0.4-4.9,0.3-7.3c-0.4-4-2.1-7.9-1.8-11.8c0.6-6.6,1.8-13.2,3.5-19.6 c1.4-5.7,3.6-11.2,5.6-17.4c1.8,1.3,2.9,1.7,3.2,2.4c3.3,7.6,6.6,15.3,9.7,23c1.1,2.8,2,5.6,2.7,8.5c2.2,9.8,4,19.7,6.6,29.4 c0.5,1.9,3.8,3.5,6.1,4.5c4.3,1.9,4.8-2.9,7.1-4.5c4.8-3.2,5.5-7.5,3.8-12.1c-2-5.5-3.5-11.4-5-16.8c-2.1-7.6-3.3-15.7-5.1-23.6 c-0.3-1.2,0.4-3.1-0.3-3.7c-6-5.5-7.4-13.2-10.6-20.1c-1.5-3.1-3.5-7.2-8.4-3.2c-0.6,0.5-4.2-1.3-4.2-1.9c0.2-4.5-3.5-4.6-5.5-4 c-3.9,1.1-8.5,2.7-11,5.6c-3.5,4.1-5.2,9.6-8,15l7.7,2.4c-2.7,2.3-4.6,3.9-6.6,5.5c-1.6,1.3-4.2,2.3-4.9,4 c-4.7,12.8-4.4,25.8-0.8,38.8c0.5,1,1,2,1.5,2.9c0.2,1,0.5,2,0.8,3l2,3.6l1.4,1.1L294.5,265.5z M223.4,240.9 c-0.3,5.1,0.1,10.4-1,15.3c-2.1,10,1.1,19.3,2.5,28.9c0.8,5.6-1.5,9.6-5.4,12.4c-1.3,0.9-6.2-0.5-7-2.1c-3.1-5.9-5-12.5-7.9-18.6 c-3.8-7.7-2.5-15.6-1.7-23.6c0.5-5-2.4-10.6,3-14.6c-3.1-4.6,0.9-7.9,2.2-11.7c3.6-11,16.9-14.9,26.1-6.1 c5.5,5.2,9.3,12.2,13.4,18.7c2.7,4.4,4.5,9.3,6.4,14c0.8,1.9,0.6,4.2,1.3,6.2c2.4,6.6,4.8,13.2,7.6,19.6c2.2,5.1-2.6,17.4-7.7,18.9 c-3.6,1.1-9.9-3.1-11.2-7.4c-3.6-12-6.8-24.2-10.9-36.1c-1.8-5.1-5.4-9.7-8.2-14.5L223.4,240.9z M258.7,273.6l0.2-0.3h-0.4 L258.7,273.6z M131.4,175.2c0.2,0.2,0.5,0.5,0.7,0.7c-0.8-4.9-3.8-10,2.2-14.7c2.6,3.6,6.1,7,7.9,11c7.1,16,8.9,19.1,20.3,29.7 c2.5,2.3,9.6,0.6,10-2.8c0.9-7.1,0-13.9-4.4-20.2c-4-5.9-7.1-12.5-10.7-18.7c-1.2-2.1-2.6-4.1-4.1-5.9c-1.5-1.6-3.7-2.7-5.3-4.4 c-8.7-9-25.1-6.5-30.6,5c-1,2.2-0.4,5.6-2,6.9c-3.1,2.8-3.7,5.9-3.6,9.7c0.1,6.1-0.2,12.1-0.1,18.2c0.1,15.3,2.2,30.3,10.4,43.7 c1.9,3.1,3.8,6.4,6.4,8.9c3.7,3.5,10.3,2.1,11.4-2.1c0.7-3,1-6.1,0.9-9.2c-0.1-3,0.1-7.4-1.6-8.6c-4.2-2.7-5.4-5.6-5.4-10.4 c0-7.3-1.4-14.6-1.9-21.9c-0.3-4.6-0.2-9.2-0.3-13.8L131.4,175.2z M159.4,22.2c2.7,2.3,6.5,4,8,7c5.6,10.7,14.2,18,24.7,23.5 c4.7,2.4,9.8,0.7,12.9-3.8s2.9-8.1-1.4-12.3c-7.7-7.5-14.7-15.6-21.8-23.6c-6.8-7.7-16-10.8-25.4-13c-2.1-0.5-5,2.2-7.4,3.7 c-1,0.6-1.5,2.1-2.5,2.8c-5.6,4-8.8,10.6-8.6,17.5c0.3,8.8,2.1,17.6,5.2,25.8c2.4,6.4,7.3,12,11.9,17.2c1.4,1.5,6.1,1.6,8.3,0.4 c1.5-0.8,2-5,1.6-7.5c-0.9-4.2-2.2-8.3-4-12.2c-3.2-7.9-3.2-16-3.1-24.3L159.4,22.2z M245,147.3c1.9,6.6,5.4,12.2,8.1,18.1 c1.1,2.4,6,4.4,9,4.1c3.6-0.3,6.5-3,7.1-7.8c0.6-5.5-0.9-10.2-3.1-14.8c-4.1-8.7-8.8-17.1-13.2-25.6c-0.2-0.6-0.4-1.1-0.7-1.6 c-1.8-2.5-3.4-5.2-5.5-7.3c-2.8-2.7-7.1-4.2-8.8-7.3c-2.5-4.7-6-6.2-10.5-5.4c-4.7,0.9-9.8,1-11.9,7.3c-3.6,10.6-5.2,21.4-6.4,32.5 c-0.8,7.4-1.5,14.6,1.1,21.5c0.9,2.5,3.2,4.5,4.9,6.7c2.4-2,6.2-3.6,7-6.1c2-6.8,3-14,4-21.1c1-6.5-0.3-13.6,5.9-21.1 C236.8,129.5,242.4,138,245,147.3z M26.4,173.6c3.4-0.6,7.9-0.8,9.6-3c3.2-4.1,1.4-11.6-2-14.3c0,5.1,2.2,10.7-3.1,14.3l-3.9-2.8 l-2.9,2.4l-0.6-0.1C24.6,171.4,25.7,173.7,26.4,173.6z M106.1,467.1c-0.5-2.3-0.6-4.8-1.5-6.8c-0.6-1.3-2.6-1.9-4-2.8 C100.7,461.8,100.7,466,106.1,467.1z M108.7,470.4c3.1-0.9,6.2-1.9,9.2-3.1l-5.4,0.5v0l-6.4-0.7C107,468.3,108.1,470.6,108.7,470.4z M302.7,261l-4.6,4.4C302.8,265.7,303.2,265.3,302.7,261L302.7,261z M29.5,147.9l3.3,3.7L29.5,147.9z M289,259.8l2,3.6L289,259.8z M288.2,256.8c-0.5-1-1-2-1.5-2.9L288.2,256.8z M292.4,264.4l2.1,1.1L292.4,264.4z M93.1,315.2L95,314l-0.7-0.7L93.1,315.2 L93.1,315.2z M99.8,317h-0.4l0.2,0.4L99.8,317z M112.5,467.8L112.5,467.8L112.5,467.8z M24.2,170.3l2.9-2.4L24.2,170.3z M258.9,273.3h-0.4l0.1,0.4L258.9,273.3z M132.2,175.9c-0.2-0.2-0.5-0.4-0.7-0.7l0.2,1.2C131.8,176.3,132,176.1,132.2,175.9 L132.2,175.9z" fill="#00bf63"/></g></svg>